<?xml version="1.0" encoding="UTF-8"?>
<svg version="1.1" xmlns="http://www.w3.org/2000/svg" width="1772" height="1299">
<path d="M0 0 C129.69 0 259.38 0 393 0 C393 41.25 393 82.5 393 125 C321.72 125 250.44 125 177 125 C177 299.9 177 474.8 177 655 C122.88 655 68.76 655 13 655 C13 480.1 13 305.2 13 125 C-14.39 125 -41.78 125 -70 125 C-66.51199792 121.51199792 -63.80918865 119.01945667 -59.875 116.3125 C-49.78378684 109.06961313 -41.56159587 100.82465413 -34 91 C-33.26007812 90.07574219 -32.52015625 89.15148437 -31.7578125 88.19921875 C-15.30436714 67.16272027 -5.51962692 41.39720193 -2 15 C-1.34 10.05 -0.68 5.1 0 0 Z " fill="#060000" transform="translate(638,100)"/>
<path d="M0 0 C17.8453085 -0.02332826 35.69061306 -0.04097882 53.53593349 -0.05181217 C61.82124274 -0.05697528 70.10654253 -0.06401827 78.3918457 -0.07543945 C85.61069608 -0.08538583 92.82953961 -0.09185332 100.04839665 -0.09408849 C103.87308255 -0.09539568 107.69774887 -0.09848203 111.52242851 -0.10573006 C115.11825787 -0.11248954 118.71405946 -0.11461711 122.30989456 -0.11310768 C124.26706037 -0.11351636 126.22422312 -0.11891193 128.18138123 -0.12442017 C129.91255188 -0.12235817 129.91255188 -0.12235817 131.67869568 -0.12025452 C132.688059 -0.12117631 133.69742231 -0.1220981 134.7373724 -0.12304783 C137 0 137 0 138 1 C138.09865137 2.83407416 138.12632149 4.6719875 138.12698364 6.50871277 C138.12980347 7.7046405 138.13262329 8.90056824 138.13552856 10.13273621 C138.13358391 11.47024551 138.13153572 12.80775467 138.12939453 14.14526367 C138.13074861 15.54452561 138.13252857 16.94378719 138.13470459 18.3430481 C138.13928028 22.15526246 138.13748826 25.96744989 138.1343255 29.77966475 C138.1318001 33.7660592 138.13414018 37.75245129 138.13571167 41.73884583 C138.13753389 48.43991511 138.13512678 55.1409734 138.13037109 61.84204102 C138.12493945 69.58486701 138.12668291 77.32766663 138.1321975 85.07049197 C138.13674037 91.7151392 138.13737309 98.3597785 138.13475883 105.00442678 C138.1332011 108.97401156 138.13298829 112.94358397 138.13629532 116.91316795 C138.13919067 120.65020475 138.13716775 124.38720772 138.13140106 128.12424088 C138.12945398 130.14603377 138.132414 132.16782954 138.13552856 134.18962097 C138.13270874 135.39964783 138.12988892 136.60967468 138.12698364 137.85636902 C138.1264181 139.42792141 138.1264181 139.42792141 138.12584114 141.03122234 C137.99608733 144.09230556 137.56589269 146.99146908 137 150 C137.715447 149.99907821 138.43089399 149.99815641 139.1680212 149.99720669 C156.5514238 149.97515226 173.93482286 149.95858884 191.31823635 149.94818783 C199.72461384 149.94302469 208.13098201 149.93598166 216.53735352 149.92456055 C223.86167932 149.91461425 231.18599837 149.9081467 238.51033074 149.90591151 C242.39090787 149.90460431 246.2714657 149.90151788 250.15203667 149.89426994 C253.80039557 149.88751058 257.44872711 149.88538287 261.09709167 149.88689232 C263.08288419 149.88648363 265.0686737 149.881088 267.05445862 149.87557983 C268.2254007 149.8769545 269.39634277 149.87832916 270.60276794 149.87974548 C272.13893595 149.87836279 272.13893595 149.87836279 273.70613766 149.87695217 C276 150 276 150 277 151 C277.09742068 152.33839473 277.12631559 153.68186825 277.12698364 155.02380371 C277.12980347 155.89039108 277.13262329 156.75697845 277.13552856 157.64982605 C277.13249222 159.08676567 277.13249222 159.08676567 277.12939453 160.55273438 C277.13202301 162.05747063 277.13202301 162.05747063 277.13470459 163.59260559 C277.13912516 166.92633772 277.13618439 170.26001729 277.1328125 173.59375 C277.13348548 175.89921072 277.13445545 178.20467136 277.13571167 180.51013184 C277.13718892 185.34904657 277.13503321 190.18794287 277.13037109 195.02685547 C277.1246738 201.24494645 277.12795266 207.46299428 277.13394356 213.68108368 C277.13754843 218.44383065 277.13641092 223.2065673 277.13381577 227.96931458 C277.13314629 230.26276149 277.13397562 232.55620932 277.13629532 234.84965515 C277.13882064 238.04888406 277.13498295 241.24804203 277.12939453 244.44726562 C277.13141876 245.40522537 277.13344299 246.36318512 277.13552856 247.35017395 C277.13129883 248.65005501 277.13129883 248.65005501 277.12698364 249.97619629 C277.12660662 250.7335331 277.12622959 251.4908699 277.12584114 252.27115631 C277 254 277 254 276 255 C274.20305962 255.09639184 272.40229107 255.12187425 270.60276794 255.12025452 C268.84635483 255.12231651 268.84635483 255.12231651 267.05445862 255.12442017 C265.75830124 255.12082489 264.46214386 255.11722961 263.12670898 255.11352539 C261.75712079 255.11324352 260.38753244 255.11340125 259.01794434 255.1139679 C255.28877052 255.11425588 251.55962859 255.10835909 247.83046222 255.10139394 C243.93735587 255.09516047 240.04424887 255.09455661 236.15113831 255.09336853 C228.77401854 255.09025519 221.39691351 255.08204178 214.01980025 255.07201904 C205.62332457 255.06085797 197.22684821 255.05534747 188.83036697 255.05032361 C171.55356944 255.03985916 154.27678628 255.02225968 137 255 C137.08411307 277.01935886 137.17932384 299.0386453 137.28752708 321.05789948 C137.33751951 331.28321354 137.38396328 341.50852013 137.421875 351.73388672 C137.45495142 360.65261654 137.49486746 369.5712859 137.54279006 378.48994875 C137.56790047 383.20656825 137.58972619 387.92314844 137.60334396 392.63981628 C137.61630614 397.0918248 137.63850824 401.54369743 137.66738319 405.99563026 C137.67634969 407.61757741 137.68212314 409.23954637 137.68421364 410.86151695 C137.71307853 429.87886516 138.26271878 449.81767662 151.5546875 464.74609375 C161.03934222 473.84500892 174.74426156 474.46545822 187.17578125 474.2890625 C197.44948214 473.88132693 207.38841227 470.4327099 217 467 C214.73068249 470.12031158 212.35065932 472.58453565 209.375 475 C192.48041033 489.60220111 183.05593764 512.12076243 181 534 C180.07511074 548.76577597 182.71021502 562.91368478 187 577 C146.31337993 584.40410224 99.27637741 581.86517612 62 563 C61.20207031 562.60039063 60.40414063 562.20078125 59.58203125 561.7890625 C42.98949518 553.037601 30.10096036 540.59230403 20 525 C19.5860498 524.37295166 19.17209961 523.74590332 18.74560547 523.09985352 C1.07496173 495.74505027 -1.17895478 462.0623758 -1.11352539 430.41845703 C-1.11324273 428.4853821 -1.11340279 426.55230705 -1.1139679 424.61923218 C-1.11425279 419.4136061 -1.10840612 414.20800343 -1.10139394 409.00238276 C-1.09510886 403.54650144 -1.09455254 398.09061949 -1.09336853 392.63473511 C-1.09027034 382.32206654 -1.08207746 372.00940867 -1.07201904 361.6967448 C-1.06081078 349.9481566 -1.05533561 338.19956788 -1.05032361 326.45097566 C-1.03989348 302.30064452 -1.02232351 278.15032286 -1 254 C-2.12419594 254.00333092 -2.12419594 254.00333092 -3.27110291 254.00672913 C-10.31982291 254.02673179 -17.36853315 254.041974 -24.41727352 254.05181217 C-28.0414596 254.05704002 -31.6656223 254.06413587 -35.28979492 254.07543945 C-38.78459975 254.08627184 -42.27938204 254.09227758 -45.77420235 254.09487724 C-47.76239389 254.09763551 -49.75057631 254.10544688 -51.73875427 254.11329651 C-52.93992386 254.11337204 -54.14109344 254.11344757 -55.37866211 254.11352539 C-56.44233505 254.115746 -57.506008 254.11796661 -58.60191345 254.12025452 C-61 254 -61 254 -62 253 C-62.10068417 249.86976516 -62.1361416 246.7615508 -62.12939453 243.63085938 C-62.13114685 242.64720901 -62.13289917 241.66355865 -62.13470459 240.65010071 C-62.13912505 237.38129947 -62.13618443 234.11255184 -62.1328125 230.84375 C-62.13348548 228.58312978 -62.13445546 226.32250962 -62.13571167 224.06188965 C-62.13718891 219.31713168 -62.13503326 214.57239251 -62.13037109 209.82763672 C-62.1246738 203.73061376 -62.12795266 197.63363481 -62.13394356 191.53661346 C-62.13754848 186.86651271 -62.1364109 182.19642247 -62.13381577 177.52632141 C-62.1331463 175.27753189 -62.13397558 173.02874143 -62.13629532 170.779953 C-62.13882071 167.64298962 -62.13498285 164.50609859 -62.12939453 161.36914062 C-62.13141876 160.42988235 -62.13344299 159.49062408 -62.13552856 158.52290344 C-62.11426225 152.11426225 -62.11426225 152.11426225 -61 151 C-59.1281906 150.90613619 -57.2528194 150.88256196 -55.37866211 150.88647461 C-53.57690773 150.88658791 -53.57690773 150.88658791 -51.73875427 150.88670349 C-50.4314888 150.89186478 -49.12422333 150.89702606 -47.77734375 150.90234375 C-46.43355868 150.90420802 -45.08977293 150.90563188 -43.74598694 150.90663147 C-40.20317723 150.91045598 -36.6604083 150.92028568 -33.11761475 150.93133545 C-29.50484773 150.94155101 -25.89207416 150.9461294 -22.27929688 150.95117188 C-15.1861812 150.96190802 -8.09309326 150.97898364 -1 151 C-1.00222061 150.0669252 -1.00444122 149.1338504 -1.00672913 148.17250061 C-1.02772415 139.02459452 -1.04231644 129.87669372 -1.05181217 120.72876835 C-1.05685904 116.03474428 -1.06358562 111.34074072 -1.07543945 106.64672852 C-1.1627351 71.09003458 -0.62049729 35.55004815 0 0 Z " fill="#080202" transform="translate(1053,229)"/>
<path d="M0 0 C7.96599972 5.6899998 14.19949921 14.26970876 16.0078125 24.01953125 C17.29973357 34.48702808 15.26085226 43.59647875 9.5390625 52.4921875 C3.06155439 60.72973122 -6.04555037 66.03841454 -16.4609375 67.4921875 C-26.02433828 68.56579899 -36.01208239 66.30418168 -43.8984375 60.6796875 C-50.83226788 54.85526998 -56.75349637 47.60385933 -58.4609375 38.4921875 C-59.4014977 26.5605095 -58.35488023 16.41766156 -50.7109375 6.6171875 C-37.36865238 -7.37344395 -16.50119458 -10.11025573 0 0 Z " fill="#0B0606" transform="translate(1337.4609375,731.5078125)"/>
<path d="M0 0 C7.26 0 14.52 0 22 0 C27.77194164 11.38788485 33.228996 22.87321355 38.5 34.5 C39.23410397 36.1134046 39.96847782 37.72668642 40.703125 39.33984375 C42.47184673 43.22516231 44.23697008 47.11209559 46 51 C45.9285376 50.36868164 45.8570752 49.73736328 45.78344727 49.08691406 C44.78165212 38.97621995 44.888548 28.89691935 44.9375 18.75 C44.94252673 16.92578248 44.94708756 15.10156362 44.95117188 13.27734375 C44.96122147 8.85150125 44.98081279 4.42584955 45 0 C51.6 0 58.2 0 65 0 C65 27.06 65 54.12 65 82 C57.74 82 50.48 82 43 82 C34.69409327 64.45801253 26.44977922 46.92792398 19 29 C19.07105453 29.60141815 19.14210907 30.2028363 19.21531677 30.82247925 C19.89970623 37.03450287 20.13392045 43.13680852 20.09765625 49.3828125 C20.0962413 50.32309296 20.09482635 51.26337341 20.09336853 52.23214722 C20.08783008 55.19646568 20.07528962 58.16070488 20.0625 61.125 C20.05747703 63.15104057 20.05291553 65.17708233 20.04882812 67.203125 C20.0387374 72.13547079 20.01915063 77.06764806 20 82 C13.4 82 6.8 82 0 82 C0 54.94 0 27.88 0 0 Z " fill="#100B0B" transform="translate(777,910)"/>
<path d="M0 0 C7.59 0 15.18 0 23 0 C24.24586651 4.00164119 25.49122911 8.00343241 26.73535156 12.00561523 C27.15791442 13.36442901 27.58076067 14.72315469 28.00390625 16.08178711 C28.6153465 18.04517367 29.22573523 20.00888463 29.8359375 21.97265625 C30.20251465 23.15093994 30.5690918 24.32922363 30.94677734 25.54321289 C32.00570379 29.01872044 33.01222477 32.50374419 34 36 C34.25692627 35.15816162 34.51385254 34.31632324 34.77856445 33.44897461 C35.74273855 30.29647471 36.71041934 27.14509455 37.68041992 23.99438477 C38.09782447 22.63608685 38.5138673 21.27736963 38.9284668 19.91821289 C39.52807141 17.95344349 40.13271962 15.99028419 40.73828125 14.02734375 C41.09962158 12.84906006 41.46096191 11.67077637 41.83325195 10.45678711 C43.03317846 6.9017004 44.52196434 3.44874987 46 0 C53.26 0 60.52 0 68 0 C68 27.06 68 54.12 68 82 C62.06 82 56.12 82 50 82 C49.976818 76.57798783 49.95697443 71.15615344 49.94506836 65.73413086 C49.94009545 63.89655977 49.93331475 62.05899251 49.92456055 60.22143555 C49.87296227 49.09745457 50.05653704 38.08861488 51 27 C50.67201416 27.99443115 50.34402832 28.9888623 50.00610352 30.01342773 C48.79216622 33.69135211 47.57430101 37.3679656 46.35522461 41.04418945 C45.8274528 42.63758243 45.30075694 44.2313322 44.77514648 45.82543945 C44.02087291 48.11243105 43.26278011 50.39812517 42.50390625 52.68359375 C42.26845596 53.40026718 42.03300568 54.11694061 41.79042053 54.85533142 C40.11387171 59.88612829 40.11387171 59.88612829 39 61 C37.31391034 61.07205511 35.62499341 61.08386068 33.9375 61.0625 C33.01839844 61.05347656 32.09929688 61.04445313 31.15234375 61.03515625 C30.44207031 61.02355469 29.73179687 61.01195312 29 61 C24.67420693 51.26696559 21.36815149 41.10445446 18 31 C18 47.83 18 64.66 18 82 C12.06 82 6.12 82 0 82 C0 54.94 0 27.88 0 0 Z M16 24 C17 28 17 28 17 28 Z " fill="#151010" transform="translate(561,910)"/>
<path d="M0 0 C6.868125 -0.061875 13.73625 -0.12375 20.8125 -0.1875 C24.02963745 -0.22846802 24.02963745 -0.22846802 27.31176758 -0.27026367 C50.91373781 -0.44785328 50.91373781 -0.44785328 60.34375 7.3203125 C65.3514972 12.39892404 67.12894393 18.19651218 67.25 25.1875 C67.13982339 32.70955744 65.86806664 38.41561197 60.5625 43.9375 C58.20503496 46.16838974 55.95423551 47.65598516 53 49 C54.46472957 53.03474872 56.41424305 56.4744184 58.6953125 60.10546875 C59.04761932 60.67074783 59.39992615 61.23602692 59.76290894 61.81843567 C61.26046557 64.2212671 62.7672148 66.61828245 64.27392578 69.01538086 C65.3763692 70.77232603 66.47350288 72.53250309 67.5703125 74.29296875 C68.22789551 75.3399292 68.88547852 76.38688965 69.56298828 77.46557617 C71 80 71 80 71 82 C63.08 82 55.16 82 47 82 C44.87951418 78.35358094 42.76074675 74.70627102 40.64624023 71.05639648 C39.92652788 69.81526153 39.20583198 68.57469637 38.48413086 67.3347168 C37.44645725 65.55146078 36.41234751 63.76618003 35.37890625 61.98046875 C34.7557251 60.90692139 34.13254395 59.83337402 33.49047852 58.72729492 C32 56 32 56 31 53 C27.7 53 24.4 53 21 53 C21 62.57 21 72.14 21 82 C14.07 82 7.14 82 0 82 C0 54.94 0 27.88 0 0 Z M21 15 C21 22.26 21 29.52 21 37 C33.3457453 38.02403414 33.3457453 38.02403414 44 33 C46.64767066 29.66163265 46.43471343 26.12977757 46 22 C44.49192338 19.04941531 43.26158395 17.51210173 40.15234375 16.25 C33.83075819 14.59789778 27.48954711 14.85081501 21 15 Z " fill="#100B0B" transform="translate(349,910)"/>
<path d="M0 0 C7.26 0 14.52 0 22 0 C22 10.23 22 20.46 22 31 C29.59 31 37.18 31 45 31 C45 20.77 45 10.54 45 0 C51.93 0 58.86 0 66 0 C66 27.06 66 54.12 66 82 C59.07 82 52.14 82 45 82 C45 70.78 45 59.56 45 48 C37.41 48 29.82 48 22 48 C22 59.22 22 70.44 22 82 C14.74 82 7.48 82 0 82 C0 54.94 0 27.88 0 0 Z " fill="#120D0D" transform="translate(133,910)"/>
<path d="M0 0 C6.93 0 13.86 0 21 0 C21 29.37 21 58.74 21 89 C15.39 89 9.78 89 4 89 C3.34 87.35 2.68 85.7 2 84 C1.56171875 84.33773437 1.1234375 84.67546875 0.671875 85.0234375 C-6.56009017 90.10933171 -14.56346879 91.85314683 -23.3125 90.375 C-31.49007345 88.28488538 -37.3952096 84.16933951 -42 77 C-46.72172538 66.37611789 -47.78082698 55.36505134 -43.97265625 44.3125 C-40.30358673 35.58925039 -34.79976049 29.24020423 -25.92675781 25.60424805 C-22.67057814 24.58308171 -19.43790803 24.52669529 -16.0625 24.5625 C-15.06573242 24.5325293 -15.06573242 24.5325293 -14.04882812 24.50195312 C-7.96700621 24.50785208 -6.04300484 25.97849758 0 29 C0 19.43 0 9.86 0 0 Z M-20 44 C-24.57864983 50.02931116 -24.98314262 56.66575607 -24 64 C-22.82177137 67.81120894 -21.58639329 70.96833699 -18.16796875 73.19140625 C-13.20181209 75.04364846 -7.72055965 74.77249617 -2.9375 72.625 C-0.9029385 71.13747501 -0.9029385 71.13747501 0 69 C0.32264929 64.86069549 0.32435822 60.71282371 0.375 56.5625 C0.41238281 55.40427734 0.44976563 54.24605469 0.48828125 53.05273438 C0.49988281 51.94349609 0.51148438 50.83425781 0.5234375 49.69140625 C0.54325684 48.67248291 0.56307617 47.65355957 0.58349609 46.60375977 C0.24296674 43.78352538 0.24296674 43.78352538 -2.37646484 42.16918945 C-8.00182092 39.66222591 -15.36603329 39.63861957 -20 44 Z " fill="#110C0C" transform="translate(1378,902)"/>
<path d="M0 0 C6.93 0 13.86 0 21 0 C21.01981934 1.62945557 21.03963867 3.25891113 21.06005859 4.93774414 C21.13626419 10.99665496 21.22495901 17.05533033 21.31738281 23.11401367 C21.3556107 25.73375797 21.39047427 28.35355365 21.421875 30.97338867 C21.46765941 34.74416436 21.525633 38.51458822 21.5859375 42.28515625 C21.59748871 43.45208511 21.60903992 44.61901398 21.62094116 45.82130432 C21.63160059 55.33922307 21.63160059 55.33922307 25.35546875 63.8828125 C28.56918076 66.06599928 32.20397536 66.10364572 36 66 C39.60586844 64.8198976 41.40628449 64.1710241 43.14022827 60.75105286 C44.08208901 57.73733585 44.27761219 55.26266735 44.31884766 52.1081543 C44.33871735 50.94732834 44.35858704 49.78650238 44.37905884 48.59049988 C44.39061005 47.34762711 44.40216125 46.10475433 44.4140625 44.82421875 C44.43342865 43.54392288 44.4527948 42.26362701 44.4727478 40.9445343 C44.52393948 37.5531222 44.56363407 34.16167055 44.60089111 30.77008057 C44.64101249 27.3043042 44.69206758 23.83869052 44.7421875 20.37304688 C44.83818158 13.58212718 44.9222351 6.79115192 45 0 C51.93 0 58.86 0 66 0 C66.06810465 7.38952913 66.12300402 14.77888326 66.15543652 22.16866112 C66.171012 25.60100453 66.192099 29.03311984 66.22631836 32.46533203 C66.26551595 36.42217158 66.2797763 40.37892268 66.29296875 44.3359375 C66.30845261 45.55300385 66.32393646 46.77007019 66.33988953 48.02401733 C66.34195607 58.60737436 64.69393704 69.14108575 57 77 C46.99043335 83.53573899 36.64742626 85.38489677 24.90234375 83.50390625 C16.03290683 81.51921556 9.62457782 79.02337677 4.625 71.1875 C-0.35438433 62.6613475 -0.27607744 54.13447679 -0.1953125 44.53125 C-0.1924826 43.25519897 -0.18965271 41.97914795 -0.18673706 40.66442871 C-0.17747997 37.29752941 -0.15955962 33.93090918 -0.1373291 30.56408691 C-0.11674672 27.11826976 -0.10770904 23.67242361 -0.09765625 20.2265625 C-0.0756663 13.48428897 -0.04117267 6.74218258 0 0 Z " fill="#110C0C" transform="translate(455,910)"/>
<path d="M0 0 C20.13 0 40.26 0 61 0 C61 5.28 61 10.56 61 16 C48.13 16 35.26 16 22 16 C22 21.28 22 26.56 22 32 C32.89 32 43.78 32 55 32 C55 37.28 55 42.56 55 48 C44.11 48 33.22 48 22 48 C22 53.94 22 59.88 22 66 C35.2 66 48.4 66 62 66 C62 71.28 62 76.56 62 82 C41.54 82 21.08 82 0 82 C0 54.94 0 27.88 0 0 Z " fill="#110C0C" transform="translate(673,910)"/>
<path d="M0 0 C21.12 0 42.24 0 64 0 C64 5.28 64 10.56 64 16 C57.07 16 50.14 16 43 16 C43 32.5 43 49 43 66 C49.93 66 56.86 66 64 66 C64 71.28 64 76.56 64 82 C42.88 82 21.76 82 0 82 C0 76.72 0 71.44 0 66 C6.93 66 13.86 66 21 66 C21 49.5 21 33 21 16 C14.07 16 7.14 16 0 16 C0 10.72 0 5.44 0 0 Z " fill="#130E0E" transform="translate(885,910)"/>
<path d="M0 0 C0.95583984 -0.020625 1.91167969 -0.04125 2.89648438 -0.0625 C11.7101384 -0.11056355 19.20418621 1.35920225 25.80859375 7.50390625 C30.27050849 12.68436311 32.44598414 18.86539321 32.42602539 25.65136719 C32.42591209 26.9422525 32.42591209 26.9422525 32.42579651 28.25921631 C32.42063522 29.17914368 32.41547394 30.09907104 32.41015625 31.046875 C32.4087413 31.99564514 32.40732635 32.94441528 32.40586853 33.92193604 C32.40027742 36.94798962 32.38772652 39.97396883 32.375 43 C32.36998385 45.05338435 32.36542115 47.10676986 32.36132812 49.16015625 C32.35031089 54.19013276 32.33305233 59.22005378 32.3125 64.25 C26.3725 64.25 20.4325 64.25 14.3125 64.25 C13.9825 62.6 13.6525 60.95 13.3125 59.25 C12.59449219 59.53746094 11.87648438 59.82492187 11.13671875 60.12109375 C10.20472656 60.49363281 9.27273438 60.86617187 8.3125 61.25 C7.47332031 61.59160156 6.63414063 61.93320312 5.76953125 62.28515625 C-4.98677691 66.46375159 -13.67616221 67.34945909 -24.6875 63.25 C-28.41969045 61.24092302 -30.4042709 58.73148947 -32.5625 55.0625 C-34.30618938 49.15333044 -34.50621042 43.91080887 -32.6875 38 C-26.17072497 29.03943433 -16.249423 26.27419777 -5.69140625 24.5625 C-0.35882628 23.78183966 4.91366372 23.12729918 10.3125 23.25 C8.79526882 20.0469564 7.85459117 18.5147422 4.625 16.9375 C-3.36012339 15.28021024 -8.98717239 16.72138754 -16.63671875 19.27734375 C-19.6875 20.25 -19.6875 20.25 -24.6875 21.25 C-28.1525 15.31 -28.1525 15.31 -31.6875 9.25 C-28.36860002 5.93110002 -26.14216432 5.12746125 -21.75 3.625 C-20.52410156 3.19960938 -19.29820313 2.77421875 -18.03515625 2.3359375 C-11.84932832 0.32933288 -6.48854052 0.03430821 0 0 Z M-12.6875 42.125 C-13.98137077 44.28912281 -13.98137077 44.28912281 -13 46.9375 C-11.89992528 49.3759222 -11.89992528 49.3759222 -9.6875 50.25 C-1.28237195 51.27145653 4.0621906 49.45307791 11.3125 45.25 C11.3125 41.95 11.3125 38.65 11.3125 35.25 C2.88734418 35.25 -6.31925937 36.15477441 -12.6875 42.125 Z " fill="#140F0F" transform="translate(1260.6875,926.75)"/>
<path d="M0 0 C1.21913086 -0.0309375 1.21913086 -0.0309375 2.46289062 -0.0625 C12.51936365 -0.12650301 19.40266754 2.73705191 26.63671875 9.74609375 C33.01913303 17.09102652 33.22976743 24.78003718 33.05078125 34.125 C32.8125 37.25 32.8125 37.25 31.8125 39.25 C16.9625 39.58 2.1125 39.91 -13.1875 40.25 C-8.58446442 47.15455337 -6.24701346 48.37043875 1.5625 50.0625 C9.06600199 50.79099534 16.70419296 48.4614733 23.8125 46.25 C24.82056851 47.84910868 25.81870385 49.45448262 26.8125 51.0625 C27.369375 51.95582031 27.92625 52.84914063 28.5 53.76953125 C29.8125 56.25 29.8125 56.25 29.8125 59.25 C15.62859945 65.94582332 1.04914098 68.63243595 -14.125 63.4375 C-23.17237527 59.75832134 -29.33218624 54.31587924 -34.125 45.8125 C-36.59852885 38.02088411 -36.72169324 26.84914622 -33.625 19.1875 C-32.5 17.1640625 -32.5 17.1640625 -31.1875 15.25 C-30.713125 14.55648437 -30.23875 13.86296875 -29.75 13.1484375 C-22.07400374 3.29511538 -11.94559357 0.07402382 0 0 Z M-11.1875 19.25 C-12.1775 21.23 -13.1675 23.21 -14.1875 25.25 C-4.9475 25.25 4.2925 25.25 13.8125 25.25 C11.89716563 18.68651082 11.89716563 18.68651082 6.8125 15.25 C-0.01613086 14.31142241 -6.01180994 14.20701994 -11.1875 19.25 Z " fill="#161212" transform="translate(1476.1875,926.75)"/>
<path d="M0 0 C20.79 0 41.58 0 63 0 C63 5.28 63 10.56 63 16 C56.07 16 49.14 16 42 16 C42 32.5 42 49 42 66 C48.93 66 55.86 66 63 66 C63 71.28 63 76.56 63 82 C42.21 82 21.42 82 0 82 C0 76.72 0 71.44 0 66 C6.93 66 13.86 66 21 66 C21 49.5 21 33 21 16 C14.07 16 7.14 16 0 16 C0 10.72 0 5.44 0 0 Z " fill="#0E0808" transform="translate(242,910)"/>
<path d="M0 0 C1.38276123 0.00241699 1.38276123 0.00241699 2.79345703 0.00488281 C13.1683951 0.190182 22.05230429 2.67068651 30.8125 8.375 C28.35224941 12.88545941 25.20967963 16.56004423 21.8125 20.375 C21.26722656 20.18164062 20.72195313 19.98828125 20.16015625 19.7890625 C6.49176328 14.78227844 6.49176328 14.78227844 -7.44921875 16.390625 C-8.02285156 16.71546875 -8.59648438 17.0403125 -9.1875 17.375 C-9.1875 18.365 -9.1875 19.355 -9.1875 20.375 C-4.16295957 22.20210561 0.80327359 23.62825244 6.02075195 24.76220703 C16.25702776 27.00205799 25.65758425 29.24189921 31.8125 38.375 C33.45730616 43.30941849 33.4027043 47.63910499 31.75 52.5 C26.75086049 59.91807799 20.30533943 63.22294379 11.68359375 65.03125 C0.08364146 67.00129776 -10.46106895 66.48222369 -21.6875 63.0625 C-22.3460498 62.86197021 -23.00459961 62.66144043 -23.68310547 62.45483398 C-28.09042207 61.00018298 -31.46807181 59.06699355 -35.1875 56.375 C-33.77773295 53.33647295 -32.09879772 50.7810405 -30.0625 48.125 C-29.52367187 47.41859375 -28.98484375 46.7121875 -28.4296875 45.984375 C-28.01976562 45.45328125 -27.60984375 44.9221875 -27.1875 44.375 C-22.3098212 45.23576685 -17.79429127 46.8175418 -13.125 48.4375 C-6.08412174 50.68458881 2.13010879 52.10788998 9 48.875 C9.598125 48.38 10.19625 47.885 10.8125 47.375 C10.4825 46.385 10.1525 45.395 9.8125 44.375 C4.82227038 42.32544141 -0.24615971 41.11641404 -5.49487305 39.94384766 C-15.86751198 37.61486063 -23.7185354 35.46288799 -30.1875 26.375 C-31.93353382 22.88293235 -31.61451195 19.19298922 -31.1875 15.375 C-28.66684247 8.90896548 -24.40586997 5.38178668 -18.1875 2.375 C-12.06595253 0.46079145 -6.3942605 -0.01166623 0 0 Z " fill="#151010" transform="translate(1690.1875,926.625)"/>
<path d="M0 0 C5.94 0 11.88 0 18 0 C18 6.27 18 12.54 18 19 C27.57 19 37.14 19 47 19 C47 23.95 47 28.9 47 34 C37.43 34 27.86 34 18 34 C18.1546875 40.001875 18.1546875 40.001875 18.3125 46.125 C18.33739502 47.37555176 18.36229004 48.62610352 18.38793945 49.91455078 C18.53264651 57.94084124 18.53264651 57.94084124 22 65 C28.92573623 69.00842777 38.41507516 67.14489432 46 66 C47.32 70.29 48.64 74.58 50 79 C44.50591719 84.49408281 32.31845879 83.92130689 25 84 C15.4462645 83.4254992 8.57887202 81.45511872 1.6875 74.75 C-3.54761622 66.21869949 -3.37572712 57.73013678 -3.1875 47.9375 C-3.17241956 46.58139514 -3.15873712 45.22527398 -3.14648438 43.86914062 C-3.11136101 40.57925222 -3.05756219 37.28957231 -3 34 C-8.61 34 -14.22 34 -20 34 C-20 29.38 -20 24.76 -20 20 C-13.77636672 18.96272779 -8.29000291 18.93011108 -2 19 C-1.34 12.73 -0.68 6.46 0 0 Z " fill="#130E0E" transform="translate(1031,909)"/>
<path d="M0 0 C24.75 0 49.5 0 75 0 C75 5.28 75 10.56 75 16 C66.42 16 57.84 16 49 16 C49 37.78 49 59.56 49 82 C41.74 82 34.48 82 27 82 C27 60.22 27 38.44 27 16 C18.09 16 9.18 16 0 16 C0 10.72 0 5.44 0 0 Z " fill="#130E0E" transform="translate(21,910)"/>
<path d="M0 0 C-1.32 5.28 -2.64 10.56 -4 16 C-5.918125 15.93039062 -5.918125 15.93039062 -7.875 15.859375 C-9.58330979 15.82182973 -11.29164508 15.78543255 -13 15.75 C-13.83917969 15.71648438 -14.67835937 15.68296875 -15.54296875 15.6484375 C-23.07020942 15.53173609 -28.13365446 17.51583387 -33.8125 22.4375 C-38.11808099 27.48118059 -39.37828925 30.79012013 -39.51171875 37.48828125 C-39.52966995 38.19147995 -39.54762115 38.89467865 -39.56611633 39.6191864 C-39.6200048 41.85023117 -39.65404412 44.0810647 -39.6875 46.3125 C-39.72069224 47.83140947 -39.75518367 49.35029114 -39.79101562 50.86914062 C-39.87815023 54.5794538 -39.93839492 58.28882498 -40 62 C-46.93 62 -53.86 62 -61 62 C-61 41.21 -61 20.42 -61 -1 C-55.06 -1 -49.12 -1 -43 -1 C-42.34 2.63 -41.68 6.26 -41 10 C-40.071875 8.948125 -39.14375 7.89625 -38.1875 6.8125 C-28.05672897 -3.0770622 -13.00965813 -5.20386325 0 0 Z " fill="#15100F" transform="translate(1188,929)"/>
<path d="M0 0 C-1.32 5.28 -2.64 10.56 -4 16 C-5.918125 15.93039062 -5.918125 15.93039062 -7.875 15.859375 C-9.58330979 15.82182973 -11.29164508 15.78543255 -13 15.75 C-13.83917969 15.71648438 -14.67835937 15.68296875 -15.54296875 15.6484375 C-23.08198079 15.53155359 -28.17931252 17.49272224 -33.8125 22.5 C-34.8953125 23.7375 -34.8953125 23.7375 -36 25 C-36.52956299 25.55461914 -37.05912598 26.10923828 -37.60473633 26.68066406 C-39.54541884 29.90664548 -39.47835649 32.94841222 -39.51171875 36.609375 C-39.52966995 37.33618469 -39.54762115 38.06299438 -39.56611633 38.81182861 C-39.62013241 41.12449407 -39.6540856 43.43695421 -39.6875 45.75 C-39.72068093 47.3216431 -39.75517132 48.89325914 -39.79101562 50.46484375 C-39.87831153 54.3099239 -39.93844826 58.15407727 -40 62 C-46.93 62 -53.86 62 -61 62 C-61 41.21 -61 20.42 -61 -1 C-55.06 -1 -49.12 -1 -43 -1 C-42.34 2.63 -41.68 6.26 -41 10 C-40.071875 8.948125 -39.14375 7.89625 -38.1875 6.8125 C-28.05672897 -3.0770622 -13.00965813 -5.20386325 0 0 Z " fill="#140F0F" transform="translate(1617,929)"/>
<path d="M0 0 C0.33 0 0.66 0 1 0 C1 41.25 1 82.5 1 125 C-70.28 125 -141.56 125 -215 125 C-215 299.9 -215 474.8 -215 655 C-269.12 655 -323.24 655 -379 655 C-379 480.1 -379 305.2 -379 125 C-406.39 125 -433.78 125 -462 125 C-460.35 123.35 -458.7 121.7 -457 120 C-456.34 120.33 -455.68 120.66 -455 121 C-455.99 121.99 -455.99 121.99 -457 123 C-430.93 123.33 -404.86 123.66 -378 124 C-378 298.9 -378 473.8 -378 654 C-324.54 654 -271.08 654 -216 654 C-216 479.1 -216 304.2 -216 124 C-144.72 124 -73.44 124 0 124 C0 83.08 0 42.16 0 0 Z " fill="#B1B0B0" transform="translate(1030,100)"/>
<path d="M0 0 C0.66 0.33 1.32 0.66 2 1 C1.34 1.66 0.68 2.32 0 3 C26.07 3.33 52.14 3.66 79 4 C79 178.9 79 353.8 79 534 C78.67 534 78.34 534 78 534 C78 359.43 78 184.86 78 5 C50.61 5 23.22 5 -5 5 C-3.35 3.35 -1.7 1.7 0 0 Z " fill="#A4A2A3" transform="translate(573,220)"/>
<path d="M0 0 C1.99954746 -0.04254356 4.00041636 -0.04080783 6 0 C7.60068712 1.60068712 7.44982707 3.48352697 7.75390625 5.69140625 C7.88603516 6.63564453 8.01816406 7.57988281 8.15429688 8.55273438 C8.28900391 9.54595703 8.42371094 10.53917969 8.5625 11.5625 C8.77036133 13.05813477 8.77036133 13.05813477 8.98242188 14.58398438 C9.32535575 17.05547336 9.66315353 19.52767399 10 22 C11.32 17.38 12.64 12.76 14 8 C15.98 8 17.96 8 20 8 C20.50471197 9.76949612 21.00360685 11.54065223 21.5 13.3125 C21.7784375 14.29863281 22.056875 15.28476563 22.34375 16.30078125 C23 19 23 19 23 22 C23.66 22 24.32 22 25 22 C25.06058594 20.91460938 25.12117187 19.82921875 25.18359375 18.7109375 C25.26806064 17.26561514 25.35270551 15.82030318 25.4375 14.375 C25.47681641 13.66214844 25.51613281 12.94929688 25.55664062 12.21484375 C25.80309681 8.08196318 26.23470053 4.07730976 27 0 C28.98 0 30.96 0 33 0 C32.42128908 7.82660622 31.33870899 15.4684724 29.9375 23.1875 C29.75123047 24.23486328 29.56496094 25.28222656 29.37304688 26.36132812 C28.91947338 28.90831773 28.46174232 31.45448099 28 34 C25.69 34 23.38 34 21 34 C19.68 29.38 18.36 24.76 17 20 C16.0409375 23.1865625 16.0409375 23.1865625 15.0625 26.4375 C13.125 32.875 13.125 32.875 12 34 C10.00041636 34.04080783 7.99954746 34.04254356 6 34 C4.05240613 26.91146016 2.95289953 19.76584128 1.875 12.5 C1.60236328 10.69402344 1.60236328 10.69402344 1.32421875 8.8515625 C0.87937413 5.9015403 0.43806423 2.95103533 0 0 Z " fill="#383434" transform="translate(590,1191)"/>
<path d="M0 0 C1.98 0 3.96 0 6 0 C9.96 6.93 13.92 13.86 18 21 C18.33 14.07 18.66 7.14 19 0 C20.98 0 22.96 0 25 0 C25 11.22 25 22.44 25 34 C22.69 34 20.38 34 18 34 C14.04 26.74 10.08 19.48 6 12 C5.67 19.26 5.34 26.52 5 34 C3.35 34 1.7 34 0 34 C0 22.78 0 11.56 0 0 Z M19 23 C20 25 20 25 20 25 Z " fill="#393535" transform="translate(1117,1091)"/>
<path d="M0 0 C1.98 0 3.96 0 6 0 C9.96 6.93 13.92 13.86 18 21 C18.33 14.07 18.66 7.14 19 0 C20.98 0 22.96 0 25 0 C25 11.22 25 22.44 25 34 C19 34 19 34 17.34765625 32.48828125 C16.92355469 31.77027344 16.49945313 31.05226563 16.0625 30.3125 C15.33353516 29.10207031 15.33353516 29.10207031 14.58984375 27.8671875 C11.6706132 22.60253092 8.80400921 17.32761751 6 12 C5.67 19.26 5.34 26.52 5 34 C3.35 34 1.7 34 0 34 C0 22.78 0 11.56 0 0 Z M19 23 C20 25 20 25 20 25 Z " fill="#383535" transform="translate(292,1091)"/>
<path d="M0 0 C17 0 17 0 23 3 C25.4466978 6.67004671 25.83795144 9.73557387 25 14 C22.625 17 22.625 17 20 19 C19.34 19 18.68 19 18 19 C18.5775 19.91523437 19.155 20.83046875 19.75 21.7734375 C20.5002341 22.97381205 21.25022133 24.17434092 22 25.375 C22.3815625 25.97828125 22.763125 26.5815625 23.15625 27.203125 C26 31.7734375 26 31.7734375 26 34 C23.375 34.5625 23.375 34.5625 20 34 C16.27566626 29.90847843 13.93623278 25.14197668 12 20 C10.02 20 8.04 20 6 20 C6 24.62 6 29.24 6 34 C4.02 34 2.04 34 0 34 C0 22.78 0 11.56 0 0 Z M6 4 C6 7.96 6 11.92 6 16 C11.26053037 16.31563182 14.44573816 15.66590937 19 13 C19.16681109 10.08347826 19.16681109 10.08347826 19 7 C16.41073669 4.41073669 14.97294721 4.62601957 11.375 4.375 C9.60125 4.25125 7.8275 4.1275 6 4 Z " fill="#383535" transform="translate(1145,1191)"/>
<path d="M0 0 C17 0 17 0 23 3 C25.4466978 6.67004671 25.83795144 9.73557387 25 14 C22.625 17 22.625 17 20 19 C19.34 19 18.68 19 18 19 C18.5775 19.91523437 19.155 20.83046875 19.75 21.7734375 C20.5002341 22.97381205 21.25022133 24.17434092 22 25.375 C22.3815625 25.97828125 22.763125 26.5815625 23.15625 27.203125 C26 31.7734375 26 31.7734375 26 34 C23.375 34.5625 23.375 34.5625 20 34 C16.27566626 29.90847843 13.93623278 25.14197668 12 20 C10.02 20 8.04 20 6 20 C6 24.62 6 29.24 6 34 C4.02 34 2.04 34 0 34 C0 22.78 0 11.56 0 0 Z M6 4 C6 7.96 6 11.92 6 16 C11.26053037 16.31563182 14.44573816 15.66590937 19 13 C19.16681109 10.08347826 19.16681109 10.08347826 19 7 C16.41073669 4.41073669 14.97294721 4.62601957 11.375 4.375 C9.60125 4.25125 7.8275 4.1275 6 4 Z " fill="#383535" transform="translate(980,1191)"/>
<path d="M0 0 C5.16283153 5.60535995 5.7432742 11.02237215 5.5390625 18.4296875 C4.89448514 23.82981335 3.01020852 27.60752507 -0.875 31.375 C-5.96671076 33.10834834 -11.68274247 33.67854086 -16.75390625 31.56640625 C-21.24721223 28.3118563 -22.96805848 23.64463989 -23.8125 18.375 C-24.0344463 11.70736318 -23.33438444 6.54286793 -18.8125 1.375 C-13.25032099 -3.66572473 -6.4101932 -3.70366718 0 0 Z M-15.8125 6.375 C-18.18884512 10.44873449 -18.40063824 14.76037686 -17.8125 19.375 C-16.28286976 23.42852014 -14.7715585 26.39547075 -10.8125 28.375 C-7.49125138 28.29196878 -6.12038758 27.63157298 -3.5625 25.5 C-0.21121889 21.43058723 -0.47495422 17.16356271 -0.53515625 12.11328125 C-0.92974987 8.21736394 -2.05509363 6.13240637 -4.8125 3.375 C-9.87429782 1.43643913 -12.17011746 2.53026287 -15.8125 6.375 Z " fill="#353131" transform="translate(1220.8125,1192.625)"/>
<path d="M0 0 C4.21139467 3.8529781 6.08019816 7.38920879 7 13 C7.07779155 19.67062559 6.53973376 24.81173285 2 30 C-1.96529359 33.58682739 -5.13056399 33.50932195 -10.3046875 33.34375 C-14.17981765 32.8495305 -16.21000368 31.72024641 -19 29 C-22.70357389 23.07428177 -22.82685496 16.85108391 -22 10 C-20.75090106 5.99007213 -19.0272634 3.0272634 -16.0625 0.0625 C-10.64926251 -2.72613749 -5.57291277 -2.20489108 0 0 Z M-12.6875 5.375 C-16.60981039 9.82735233 -16.33993746 13.21051039 -16.27734375 19.00390625 C-15.87946232 23.3021465 -15.09041524 24.99091147 -12 28 C-9.10927047 29.32908167 -9.10927047 29.32908167 -6 29 C-2.68782125 27.11808025 -1.29838411 25.63939453 0.3125 22.1875 C1.665492 15.91453707 1.49468528 11.49164829 -2 6 C-5.71958132 2.40040517 -8.5767342 1.74223022 -12.6875 5.375 Z " fill="#343030" transform="translate(1467,1092)"/>
<path d="M0 0 C4.21139467 3.8529781 6.08019816 7.38920879 7 13 C7.07779155 19.67062559 6.53973376 24.81173285 2 30 C-1.96529359 33.58682739 -5.13056399 33.50932195 -10.3046875 33.34375 C-14.17981765 32.8495305 -16.21000368 31.72024641 -19 29 C-22.70357389 23.07428177 -22.82685496 16.85108391 -22 10 C-20.75090106 5.99007213 -19.0272634 3.0272634 -16.0625 0.0625 C-10.64926251 -2.72613749 -5.57291277 -2.20489108 0 0 Z M-12.6875 5.375 C-16.60981039 9.82735233 -16.33993746 13.21051039 -16.27734375 19.00390625 C-15.87946232 23.3021465 -15.09041524 24.99091147 -12 28 C-9.10927047 29.32908167 -9.10927047 29.32908167 -6 29 C-2.68782125 27.11808025 -1.29838411 25.63939453 0.3125 22.1875 C1.665492 15.91453707 1.49468528 11.49164829 -2 6 C-5.71958132 2.40040517 -8.5767342 1.74223022 -12.6875 5.375 Z " fill="#322E2E" transform="translate(972,1092)"/>
<path d="M0 0 C5.16283153 5.60535995 5.7432742 11.02237215 5.5390625 18.4296875 C4.89448514 23.82981335 3.01020852 27.60752507 -0.875 31.375 C-5.96671076 33.10834834 -11.68274247 33.67854086 -16.75390625 31.56640625 C-21.24721223 28.3118563 -22.96805848 23.64463989 -23.8125 18.375 C-24.0344463 11.70736318 -23.33438444 6.54286793 -18.8125 1.375 C-13.25032099 -3.66572473 -6.4101932 -3.70366718 0 0 Z M-14.8125 4.375 C-17.72615009 9.57794659 -18.37703702 13.44736124 -17.8125 19.375 C-16.28625797 23.41954139 -14.78907934 26.44351861 -10.8125 28.375 C-7.25228375 28.30234253 -5.50528733 28.09167655 -3 25.5 C-0.13540384 20.37388056 -0.23290648 15.09746558 -0.8125 9.375 C-2.19831564 5.70735473 -2.19831564 5.70735473 -4.8125 3.375 C-8.69167044 2.08194319 -11.57107961 1.69244519 -14.8125 4.375 Z " fill="#343030" transform="translate(890.8125,1192.625)"/>
<path d="M0 0 C16.24137931 0 16.24137931 0 21 3 C26.05255145 8.31847521 26.36363935 12.90060156 26.26953125 19.984375 C25.82002136 25.01367404 24.41641998 27.96607866 20.4453125 31.30859375 C13.68884685 35.49876236 8.53828533 34 0 34 C0 22.78 0 11.56 0 0 Z M5 5 C5 12.92 5 20.84 5 29 C13.46164909 29.93105442 13.46164909 29.93105442 17 26.625 C20.62337451 21.86932095 20.52517794 17.8506665 20 12 C18.38727433 8.31376989 17.369675 7.24645 14 5 C11.03 5 8.06 5 5 5 Z " fill="#312E2E" transform="translate(1255,1191)"/>
<path d="M0 0 C7.92 0 15.84 0 24 0 C24 1.65 24 3.3 24 5 C18.06 5 12.12 5 6 5 C6 7.97 6 10.94 6 14 C10.95 14 15.9 14 21 14 C21 15.32 21 16.64 21 18 C16.05 18 11.1 18 6 18 C6 21.63 6 25.26 6 29 C11.94 29 17.88 29 24 29 C24 30.65 24 32.3 24 34 C16.08 34 8.16 34 0 34 C0 22.78 0 11.56 0 0 Z " fill="#403D3D" transform="translate(1063,1091)"/>
<path d="M0 0 C7.92 0 15.84 0 24 0 C24 1.65 24 3.3 24 5 C18.06 5 12.12 5 6 5 C6 7.97 6 10.94 6 14 C10.95 14 15.9 14 21 14 C21 15.32 21 16.64 21 18 C16.05 18 11.1 18 6 18 C6 21.63 6 25.26 6 29 C11.94 29 17.88 29 24 29 C24 30.65 24 32.3 24 34 C16.08 34 8.16 34 0 34 C0 22.78 0 11.56 0 0 Z " fill="#403D3D" transform="translate(788,1091)"/>
<path d="M0 0 C7.92 0 15.84 0 24 0 C24 1.65 24 3.3 24 5 C18.06 5 12.12 5 6 5 C6 7.97 6 10.94 6 14 C10.95 14 15.9 14 21 14 C21 15.32 21 16.64 21 18 C16.05 18 11.1 18 6 18 C6 21.63 6 25.26 6 29 C11.94 29 17.88 29 24 29 C24 30.65 24 32.3 24 34 C16.08 34 8.16 34 0 34 C0 22.78 0 11.56 0 0 Z " fill="#403D3D" transform="translate(403,1091)"/>
<path d="M0 0 C1.98 0 3.96 0 6 0 C6 4.62 6 9.24 6 14 C10.62 14 15.24 14 20 14 C20 9.38 20 4.76 20 0 C21.65 0 23.3 0 25 0 C25 11.22 25 22.44 25 34 C23.35 34 21.7 34 20 34 C20 28.72 20 23.44 20 18 C15.38 18 10.76 18 6 18 C6 23.28 6 28.56 6 34 C4.02 34 2.04 34 0 34 C0 22.78 0 11.56 0 0 Z " fill="#2A2626" transform="translate(759,1191)"/>
<path d="M0 0 C1.98 0 3.96 0 6 0 C6 4.62 6 9.24 6 14 C10.62 14 15.24 14 20 14 C20 9.38 20 4.76 20 0 C21.65 0 23.3 0 25 0 C25 11.22 25 22.44 25 34 C23.35 34 21.7 34 20 34 C20 28.72 20 23.44 20 18 C15.38 18 10.76 18 6 18 C6 23.28 6 28.56 6 34 C4.02 34 2.04 34 0 34 C0 22.78 0 11.56 0 0 Z " fill="#2A2626" transform="translate(484,1191)"/>
<path d="M0 0 C1.65 0 3.3 0 5 0 C5 4.62 5 9.24 5 14 C9.62 14 14.24 14 19 14 C19 9.38 19 4.76 19 0 C20.98 0 22.96 0 25 0 C25 11.22 25 22.44 25 34 C23.02 34 21.04 34 19 34 C19 28.72 19 23.44 19 18 C14.38 18 9.76 18 5 18 C5 23.28 5 28.56 5 34 C3.35 34 1.7 34 0 34 C0 22.78 0 11.56 0 0 Z " fill="#2D292A" transform="translate(732,1091)"/>
<path d="M0 0 C1.65 0 3.3 0 5 0 C5 4.62 5 9.24 5 14 C9.62 14 14.24 14 19 14 C19 9.38 19 4.76 19 0 C20.98 0 22.96 0 25 0 C25 11.22 25 22.44 25 34 C23.02 34 21.04 34 19 34 C19 28.72 19 23.44 19 18 C14.38 18 9.76 18 5 18 C5 23.28 5 28.56 5 34 C3.35 34 1.7 34 0 34 C0 22.78 0 11.56 0 0 Z " fill="#2D2929" transform="translate(567,1091)"/>
<path d="M0 0 C0.84820313 0.17144531 1.69640625 0.34289063 2.5703125 0.51953125 C4.875 1.1875 4.875 1.1875 7.875 3.1875 C7.215 4.5075 6.555 5.8275 5.875 7.1875 C4.905625 6.836875 3.93625 6.48625 2.9375 6.125 C-1.53989226 4.81297727 -5.58825355 5.42623189 -10.125 6.1875 C-9.62374356 8.64002252 -9.62374356 8.64002252 -8.125 11.1875 C-5.76690184 12.42937325 -3.67094991 13.36861383 -1.1875 14.25 C6.69693492 17.11342143 6.69693492 17.11342143 8.875 21.1875 C9.41546356 25.43399943 9.35876179 27.44573192 7 31.0625 C3.49157938 34.57092062 1.06794055 34.40145763 -3.8125 34.5 C-9.88382499 34.4812806 -13.31789989 33.85005247 -18.125 30.1875 C-17.465 28.8675 -16.805 27.5475 -16.125 26.1875 C-13.45099748 26.64590043 -11.21229716 27.14614871 -8.75 28.3125 C-5.2786643 29.4696119 -2.66923585 28.88244821 0.875 28.1875 C1.205 26.5375 1.535 24.8875 1.875 23.1875 C0.89660156 22.69830078 0.89660156 22.69830078 -0.1015625 22.19921875 C-1.90521104 21.29739448 -3.70723482 20.39231502 -5.5078125 19.484375 C-7.52461278 18.48500531 -9.5696844 17.54255161 -11.625 16.625 C-14.125 15.1875 -14.125 15.1875 -15.5625 13.4375 C-16.41988416 10.00796336 -16.03608416 7.58888086 -15.125 4.1875 C-10.62148795 -0.56620716 -6.24549012 -1.32740539 0 0 Z " fill="#3B3737" transform="translate(1491.125,1190.8125)"/>
<path d="M0 0 C19.05263158 0 19.05263158 0 23.75 3.1875 C25.74567324 6.08122619 25.88216156 8.52376587 26 12 C24.72237315 16.15228725 23.65462788 17.59920742 19.9375 19.875 C15.3599407 21.55474816 10.81338353 21.19781028 6 21 C6 25.29 6 29.58 6 34 C4.02 34 2.04 34 0 34 C0 22.78 0 11.56 0 0 Z M6 4 C6 7.96 6 11.92 6 16 C12.66939214 16.583394 12.66939214 16.583394 18.6875 14.375 C20.43571968 11.21155486 19.93128185 9.41470013 19 6 C17.96875 5.67 16.9375 5.34 15.875 5 C15.29492188 4.814375 14.71484375 4.62875 14.1171875 4.4375 C11.38100982 3.79763339 11.38100982 3.79763339 6 4 Z " fill="#403D3D" transform="translate(1090,1191)"/>
<path d="M0 0 C1.98 0 3.96 0 6 0 C9.26070617 7.04312533 12.04690184 14.22716912 14.75 21.5 C15.16121094 22.59570312 15.57242187 23.69140625 15.99609375 24.8203125 C19 32.86399502 19 32.86399502 19 34 C16.69 34 14.38 34 12 34 C11.01 31.03 10.02 28.06 9 25 C5.04 24.67 1.08 24.34 -3 24 C-3.99 27.3 -4.98 30.6 -6 34 C-7.98 34 -9.96 34 -12 34 C-11.32243704 30.03174571 -10.15567637 26.44491782 -8.75 22.67578125 C-8.3065625 21.48275391 -7.863125 20.28972656 -7.40625 19.06054688 C-7.17550781 18.4455835 -6.94476563 17.83062012 -6.70703125 17.19702148 C-5.99875862 15.30919123 -5.29578724 13.41945371 -4.59375 11.52929688 C-1.15844883 2.31689765 -1.15844883 2.31689765 0 0 Z M3 7 C2.32694982 8.60149886 1.66177773 10.20631029 1 11.8125 C0.62875 12.70582031 0.2575 13.59914063 -0.125 14.51953125 C-1.16633237 17.0331433 -1.16633237 17.0331433 -1 20 C1.97 20 4.94 20 8 20 C6.68 15.71 5.36 11.42 4 7 C3.67 7 3.34 7 3 7 Z " fill="#3A3737" transform="translate(466,1091)"/>
<path d="M0 0 C2.31 0 4.62 0 7 0 C8.57489237 4.19615907 10.14120605 8.39539014 11.69970703 12.59765625 C12.23089701 14.02626238 12.76440643 15.45400834 13.30029297 16.88085938 C14.07092396 18.93396903 14.83311379 20.9900449 15.59375 23.046875 C16.05458984 24.28276367 16.51542969 25.51865234 16.99023438 26.79199219 C18 30 18 30 18 34 C16.02 34 14.04 34 12 34 C11.01 31.03 10.02 28.06 9 25 C5.04 24.67 1.08 24.34 -3 24 C-3.99 27.3 -4.98 30.6 -6 34 C-7.98 34 -9.96 34 -12 34 C-11.32243704 30.03174571 -10.15567637 26.44491782 -8.75 22.67578125 C-8.3065625 21.48275391 -7.863125 20.28972656 -7.40625 19.06054688 C-7.17550781 18.4455835 -6.94476562 17.83062012 -6.70703125 17.19702148 C-5.99875862 15.30919123 -5.29578724 13.41945371 -4.59375 11.52929688 C-1.15844883 2.31689765 -1.15844883 2.31689765 0 0 Z M3 7 C2.32694982 8.60149886 1.66177773 10.20631029 1 11.8125 C0.62875 12.70582031 0.2575 13.59914063 -0.125 14.51953125 C-1.16633237 17.0331433 -1.16633237 17.0331433 -1 20 C1.97 20 4.94 20 8 20 C6.68 15.71 5.36 11.42 4 7 C3.67 7 3.34 7 3 7 Z " fill="#3A3636" transform="translate(1291,1091)"/>
<path d="M0 0 C1.4540625 0.0309375 1.4540625 0.0309375 2.9375 0.0625 C4.64301371 4.44178736 6.34688076 8.82169211 8.046875 13.203125 C9.19296538 16.15517599 10.34734698 19.10353891 11.515625 22.046875 C11.96421875 23.18640625 12.4128125 24.3259375 12.875 25.5 C13.47634766 27.01400391 13.47634766 27.01400391 14.08984375 28.55859375 C14.9375 31.0625 14.9375 31.0625 14.9375 34.0625 C12.9575 34.0625 10.9775 34.0625 8.9375 34.0625 C7.4525 29.1125 7.4525 29.1125 5.9375 24.0625 C1.6475 24.0625 -2.6425 24.0625 -7.0625 24.0625 C-7.371875 25.526875 -7.68125 26.99125 -8 28.5 C-8.9375 32.9375 -8.9375 32.9375 -10.0625 34.0625 C-12.06208364 34.10330783 -14.06295254 34.10504356 -16.0625 34.0625 C-4.320361 0.08817063 -4.320361 0.08817063 0 0 Z M-1.0625 6.0625 C-1.73281719 8.0195868 -2.39864683 9.97821113 -3.0625 11.9375 C-3.43375 13.02804687 -3.805 14.11859375 -4.1875 15.2421875 C-5.161272 17.88870854 -5.161272 17.88870854 -5.0625 20.0625 C-2.0925 20.0625 0.8775 20.0625 3.9375 20.0625 C3.30593005 15.00994036 1.80290627 10.76656799 -0.0625 6.0625 C-0.3925 6.0625 -0.7225 6.0625 -1.0625 6.0625 Z " fill="#393535" transform="translate(332.0625,1190.9375)"/>
<path d="M0 0 C1.98 0 3.96 0 6 0 C6.0093457 0.73637695 6.01869141 1.47275391 6.02832031 2.23144531 C6.08204155 5.57164218 6.16568622 8.91044119 6.25 12.25 C6.26417969 13.40886719 6.27835938 14.56773438 6.29296875 15.76171875 C6.32519531 16.87675781 6.35742188 17.99179688 6.390625 19.140625 C6.41157227 20.16704102 6.43251953 21.19345703 6.45410156 22.25097656 C7.13467126 25.67817459 8.23998092 26.90968225 11 29 C14.1403994 29.17110449 14.1403994 29.17110449 17 28 C19.11401282 24.86700259 19.29536735 22.07848985 19.4140625 18.359375 C19.45273438 17.28945312 19.49140625 16.21953125 19.53125 15.1171875 C19.5621875 14.00601562 19.593125 12.89484375 19.625 11.75 C19.66367188 10.62335938 19.70234375 9.49671875 19.7421875 8.3359375 C19.83637336 5.55745452 19.92199586 2.77897666 20 0 C21.65 0 23.3 0 25 0 C25.0872253 4.39570794 25.14046869 8.79119271 25.1875 13.1875 C25.21263672 14.43337891 25.23777344 15.67925781 25.26367188 16.96289062 C25.27333984 18.16494141 25.28300781 19.36699219 25.29296875 20.60546875 C25.3086792 21.71043701 25.32438965 22.81540527 25.34057617 23.95385742 C24.95350902 27.41581935 24.07864349 29.22877938 22 32 C17.32679686 35.11546876 12.46789154 34.72135772 7 34 C4.20307625 32.63820192 3.08287255 31.42063567 1 29 C-0.07917226 25.76248322 -0.11425601 23.42248229 -0.09765625 20.01953125 C-0.09443359 18.85615234 -0.09121094 17.69277344 -0.08789062 16.49414062 C-0.07951172 15.27919922 -0.07113281 14.06425781 -0.0625 12.8125 C-0.05798828 11.58595703 -0.05347656 10.35941406 -0.04882812 9.09570312 C-0.03703065 6.06375332 -0.02056921 3.03190094 0 0 Z " fill="#343030" transform="translate(1309,1191)"/>
<path d="M0 0 C1.83203125 2.0859375 1.83203125 2.0859375 3 4 C2.34 4.66 1.68 5.32 1 6 C-1.61580479 5.6730244 -3.64078137 5.17960932 -6 4 C-10.1946637 3.5852971 -10.1946637 3.5852971 -13.875 5.3125 C-15.2773501 7.07800472 -15.2773501 7.07800472 -15 10 C-14.443125 10.15855469 -13.88625 10.31710937 -13.3125 10.48046875 C-6.572329 12.54123049 -0.02075394 14.9688691 4 21 C3.85533327 24.97833499 3.60587056 27.25731996 1.0625 30.375 C-3.92631957 34.30558511 -9.89872294 33.44372924 -16 33 C-18.4218181 32.25748179 -19.8986809 31.44090453 -22 30 C-22 28.68 -22 27.36 -22 26 C-20.375 25.3125 -20.375 25.3125 -18 25 C-17.0925 25.495 -16.185 25.99 -15.25 26.5 C-10.92256472 28.49727782 -8.61934902 27.87608344 -4 27 C-3.67 25.35 -3.34 23.7 -3 22 C-4.155 21.4225 -5.31 20.845 -6.5 20.25 C-7.22445312 19.88648438 -7.94890625 19.52296875 -8.6953125 19.1484375 C-10.20678842 18.39526136 -11.72232298 17.65016413 -13.2421875 16.9140625 C-13.94601562 16.57117187 -14.64984375 16.22828125 -15.375 15.875 C-16.02210938 15.56304688 -16.66921875 15.25109375 -17.3359375 14.9296875 C-19 14 -19 14 -21 12 C-21.67826087 4.99130435 -21.67826087 4.99130435 -19.375 1.625 C-13.1035669 -2.66598054 -7.06049906 -2.54931677 0 0 Z " fill="#363232" transform="translate(534,1092)"/>
<path d="M0 0 C1.98 0 3.96 0 6 0 C6.0093457 0.73637695 6.01869141 1.47275391 6.02832031 2.23144531 C6.08204155 5.57164218 6.16568622 8.91044119 6.25 12.25 C6.26417969 13.40886719 6.27835938 14.56773438 6.29296875 15.76171875 C6.32519531 16.87675781 6.35742188 17.99179688 6.390625 19.140625 C6.41157227 20.16704102 6.43251953 21.19345703 6.45410156 22.25097656 C7.13461644 25.67789851 8.23747585 26.91278732 11 29 C14.13362718 29.08892339 14.13362718 29.08892339 17 28 C19.25870108 24.61194839 19.29259413 23.22649259 19.4140625 19.23828125 C19.45273437 18.12001953 19.49140625 17.00175781 19.53125 15.84960938 C19.5621875 14.68236328 19.593125 13.51511719 19.625 12.3125 C19.66367187 11.13365234 19.70234375 9.95480469 19.7421875 8.74023438 C19.83654391 5.82698023 19.92213161 2.91373393 20 0 C21.65 0 23.3 0 25 0 C25.0872253 4.39570794 25.14046869 8.79119271 25.1875 13.1875 C25.21263672 14.43337891 25.23777344 15.67925781 25.26367188 16.96289062 C25.27333984 18.16494141 25.28300781 19.36699219 25.29296875 20.60546875 C25.3086792 21.71043701 25.32438965 22.81540527 25.34057617 23.95385742 C24.95350902 27.41581935 24.07864349 29.22877938 22 32 C17.32679686 35.11546876 12.46789154 34.72135772 7 34 C4.20307625 32.63820192 3.08287255 31.42063567 1 29 C-0.07917226 25.76248322 -0.11425601 23.42248229 -0.09765625 20.01953125 C-0.09443359 18.85615234 -0.09121094 17.69277344 -0.08789062 16.49414062 C-0.07951172 15.27919922 -0.07113281 14.06425781 -0.0625 12.8125 C-0.05798828 11.58595703 -0.05347656 10.35941406 -0.04882812 9.09570312 C-0.03703065 6.06375332 -0.02056921 3.03190094 0 0 Z " fill="#333030" transform="translate(924,1191)"/>
<path d="M0 0 C1.65 0 3.3 0 5 0 C5.01981934 0.70608398 5.03963867 1.41216797 5.06005859 2.13964844 C5.15540415 5.34346994 5.26504513 8.54664801 5.375 11.75 C5.4059375 12.86117188 5.436875 13.97234375 5.46875 15.1171875 C5.50742188 16.18710938 5.54609375 17.25703125 5.5859375 18.359375 C5.6173584 19.34389648 5.6487793 20.32841797 5.68115234 21.34277344 C6.00488565 24.04071624 6.51103029 25.73770975 8 28 C10.18541552 28.6993514 10.18541552 28.6993514 12.625 28.75 C13.44226563 28.80671875 14.25953125 28.8634375 15.1015625 28.921875 C16.04128906 28.96054688 16.04128906 28.96054688 17 29 C18.05836661 25.82490018 18.20243789 23.35717617 18.31640625 20.01953125 C18.35830078 18.85615234 18.40019531 17.69277344 18.44335938 16.49414062 C18.48267578 15.27919922 18.52199219 14.06425781 18.5625 12.8125 C18.60568359 11.58595703 18.64886719 10.35941406 18.69335938 9.09570312 C18.7995309 6.06391619 18.90157952 3.03204685 19 0 C20.98 0 22.96 0 25 0 C25.05819473 4.06243957 25.09366215 8.12477146 25.125 12.1875 C25.14175781 13.33798828 25.15851563 14.48847656 25.17578125 15.67382812 C25.18222656 16.78564453 25.18867188 17.89746094 25.1953125 19.04296875 C25.20578613 20.06414795 25.21625977 21.08532715 25.22705078 22.13745117 C24.89656587 26.30404855 23.74680856 29.07893611 21.125 32.3125 C16.23963389 34.9505977 11.42990022 34.75853378 6 34 C2.32069272 31.90784488 1.3295066 30.98851981 0 27 C-0.08315752 24.93501108 -0.10735878 22.8674211 -0.09765625 20.80078125 C-0.09443359 19.59228516 -0.09121094 18.38378906 -0.08789062 17.13867188 C-0.07951172 15.87603516 -0.07113281 14.61339844 -0.0625 13.3125 C-0.05573242 11.40114258 -0.05573242 11.40114258 -0.04882812 9.45117188 C-0.03702873 6.30073436 -0.02056597 3.15039051 0 0 Z " fill="#332F2F" transform="translate(237,1091)"/>
<path d="M0 0 C17 0 17 0 23 3 C25.46406448 6.69609672 25.67864807 9.71027391 25 14 C22.60545567 18.07959404 20.42975504 19.57433171 16 21 C12.30979892 21.24900142 8.7047205 21.08927037 5 21 C5 25.29 5 29.58 5 34 C3.35 34 1.7 34 0 34 C0 22.78 0 11.56 0 0 Z M5 4 C5 7.96 5 11.92 5 16 C6.753125 16.061875 8.50625 16.12375 10.3125 16.1875 C11.29863281 16.22230469 12.28476562 16.25710938 13.30078125 16.29296875 C16.00732083 16.22352978 16.00732083 16.22352978 17.8359375 14.6796875 C19.61641972 12.1105353 19.32276119 10.0339552 19 7 C15.7897878 3.7897878 12.62539686 4.01025241 8.1875 3.9375 C6.6096875 3.9684375 6.6096875 3.9684375 5 4 Z " fill="#312D2D" transform="translate(898,1091)"/>
<path d="M0 0 C7.92 0 15.84 0 24 0 C24 1.65 24 3.3 24 5 C21.03 5 18.06 5 15 5 C15 12.92 15 20.84 15 29 C17.97 29 20.94 29 24 29 C24 30.65 24 32.3 24 34 C16.08 34 8.16 34 0 34 C0 32.35 0 30.7 0 29 C2.97 29 5.94 29 9 29 C9 21.08 9 13.16 9 5 C6.03 5 3.06 5 0 5 C0 3.35 0 1.7 0 0 Z " fill="#464342" transform="translate(375,1191)"/>
<path d="M0 0 C7.92 0 15.84 0 24 0 C24 1.65 24 3.3 24 5 C21.03 5 18.06 5 15 5 C15 12.92 15 20.84 15 29 C17.97 29 20.94 29 24 29 C24 30.65 24 32.3 24 34 C16.08 34 8.16 34 0 34 C0 32.35 0 30.7 0 29 C2.97 29 5.94 29 9 29 C9 21.08 9 13.16 9 5 C6.03 5 3.06 5 0 5 C0 3.35 0 1.7 0 0 Z " fill="#474444" transform="translate(1227,1091)"/>
<path d="M0 0 C7.59 0 15.18 0 23 0 C23 1.65 23 3.3 23 5 C20.36 5 17.72 5 15 5 C15 12.92 15 20.84 15 29 C17.64 29 20.28 29 23 29 C23 30.65 23 32.3 23 34 C15.41 34 7.82 34 0 34 C0 32.35 0 30.7 0 29 C2.97 29 5.94 29 9 29 C9 21.08 9 13.16 9 5 C6.03 5 3.06 5 0 5 C0 3.35 0 1.7 0 0 Z " fill="#423E3E" transform="translate(650,1191)"/>
<path d="M0 0 C0.495 0.474375 0.99 0.94875 1.5 1.4375 C0.84 2.7575 0.18 4.0775 -0.5 5.4375 C-1.345625 5.086875 -2.19125 4.73625 -3.0625 4.375 C-7.06349532 3.28381946 -9.49684136 3.39964406 -13.5 4.4375 C-16.36942113 6.70283247 -17.33907612 7.95472837 -18.5 11.4375 C-18.89441267 16.66346788 -18.40549127 20.02916842 -15.5 24.4375 C-12.40638041 27.1014502 -11.04787636 27.4663356 -6.9375 27.25 C-4.10752169 26.58109604 -1.97134444 25.92030666 0.5 24.4375 C1.16 25.7575 1.82 27.0775 2.5 28.4375 C-1.32966093 32.03181864 -3.69662396 32.98688399 -8.9375 32.9375 C-14.23889286 32.76378204 -17.57048205 32.26360959 -21.5 28.4375 C-25.36366605 23.10830544 -26.17192513 17.9612822 -25.5 11.4375 C-23.8302401 6.2524561 -21.77732803 2.83992002 -17.5 -0.5625 C-11.56174159 -3.02743745 -5.62510017 -3.51568761 0 0 Z " fill="#393535" transform="translate(1388.5,1192.5625)"/>
<path d="M0 0 C7.59 0 15.18 0 23 0 C23 1.65 23 3.3 23 5 C17.39 5 11.78 5 6 5 C6 8.3 6 11.6 6 15 C10.95 15 15.9 15 21 15 C21 16.32 21 17.64 21 19 C16.05 19 11.1 19 6 19 C6 23.95 6 28.9 6 34 C4.02 34 2.04 34 0 34 C0 22.78 0 11.56 0 0 Z " fill="#413E3E" transform="translate(267,1191)"/>
<path d="M0 0 C9.9 0 19.8 0 30 0 C30 1.65 30 3.3 30 5 C26.04 5 22.08 5 18 5 C18 14.57 18 24.14 18 34 C16.02 34 14.04 34 12 34 C12 24.43 12 14.86 12 5 C8.04 5 4.08 5 0 5 C0 3.35 0 1.7 0 0 Z " fill="#454242" transform="translate(1169,1091)"/>
<path d="M0 0 C9.9 0 19.8 0 30 0 C30 1.65 30 3.3 30 5 C26.04 5 22.08 5 18 5 C18 14.57 18 24.14 18 34 C16.02 34 14.04 34 12 34 C12 24.43 12 14.86 12 5 C8.04 5 4.08 5 0 5 C0 3.35 0 1.7 0 0 Z " fill="#454242" transform="translate(1004,1091)"/>
<path d="M0 0 C9.9 0 19.8 0 30 0 C30 1.65 30 3.3 30 5 C26.04 5 22.08 5 18 5 C18 14.57 18 24.14 18 34 C16.02 34 14.04 34 12 34 C12 24.43 12 14.86 12 5 C8.04 5 4.08 5 0 5 C0 3.35 0 1.7 0 0 Z " fill="#454242" transform="translate(674,1091)"/>
<path d="M0 0 C9.57 0 19.14 0 29 0 C29 1.65 29 3.3 29 5 C25.37 5 21.74 5 18 5 C18 14.57 18 24.14 18 34 C16.02 34 14.04 34 12 34 C12 24.43 12 14.86 12 5 C8.04 5 4.08 5 0 5 C0 3.35 0 1.7 0 0 Z " fill="#423F3F" transform="translate(1417,1191)"/>
<path d="M0 0 C9.57 0 19.14 0 29 0 C29 1.65 29 3.3 29 5 C25.37 5 21.74 5 18 5 C18 14.57 18 24.14 18 34 C16.02 34 14.04 34 12 34 C12 24.43 12 14.86 12 5 C8.04 5 4.08 5 0 5 C0 3.35 0 1.7 0 0 Z " fill="#423F3E" transform="translate(702,1191)"/>
<path d="M0 0 C9.57 0 19.14 0 29 0 C29 1.65 29 3.3 29 5 C25.37 5 21.74 5 18 5 C18 14.57 18 24.14 18 34 C16.02 34 14.04 34 12 34 C12 24.43 12 14.86 12 5 C8.04 5 4.08 5 0 5 C0 3.35 0 1.7 0 0 Z " fill="#423F3F" transform="translate(427,1191)"/>
<path d="M0 0 C7.59 0 15.18 0 23 0 C22.67 1.65 22.34 3.3 22 5 C16.39 5 10.78 5 5 5 C5 8.3 5 11.6 5 15 C9.95 15 14.9 15 20 15 C20 16.32 20 17.64 20 19 C15.05 19 10.1 19 5 19 C5 23.95 5 28.9 5 34 C3.35 34 1.7 34 0 34 C0 22.78 0 11.56 0 0 Z " fill="#2D2A29" transform="translate(1505,1091)"/>
<path d="M0 0 C1.65 0 3.3 0 5 0 C5 9.57 5 19.14 5 29 C10.94 29 16.88 29 23 29 C23 30.65 23 32.3 23 34 C15.41 34 7.82 34 0 34 C0 22.78 0 11.56 0 0 Z " fill="#312E2D" transform="translate(1340,1091)"/>
<path d="M0 0 C1.65 0 3.3 0 5 0 C5 9.57 5 19.14 5 29 C10.94 29 16.88 29 23 29 C23 30.65 23 32.3 23 34 C15.41 34 7.82 34 0 34 C0 22.78 0 11.56 0 0 Z " fill="#312E2D" transform="translate(350,1091)"/>
<path d="M0 0 C0.66 0.33 1.32 0.66 2 1 C1.34 1.66 0.68 2.32 0 3 C26.07 3.33 52.14 3.66 79 4 C79 4.33 79 4.66 79 5 C51.28 5 23.56 5 -5 5 C-3.35 3.35 -1.7 1.7 0 0 Z " fill="#9C9C9C" transform="translate(573,220)"/>
<path d="M0 0 C0.66 0.33 1.32 0.66 2 1 C-0.97 3.97 -3.94 6.94 -7 10 C-7 6.04435836 -5.59478606 4.89133304 -3 2 C-2.01 1.34 -1.02 0.68 0 0 Z " fill="#686565" transform="translate(1668,931)"/>
<path d="M0 0 C0.66 0.33 1.32 0.66 2 1 C-0.64 3.64 -3.28 6.28 -6 9 C-6.66 8.67 -7.32 8.34 -8 8 C-5.58443874 4.80800833 -3.31996462 2.25283313 0 0 Z " fill="#5C5959" transform="translate(1294,732)"/>
<path d="M0 0 C0.66 0.33 1.32 0.66 2 1 C-0.31 3.31 -2.62 5.62 -5 8 C-5.33 7.34 -5.66 6.68 -6 6 C-4 4 -2 2 0 0 Z " fill="#666363" transform="translate(958,1091)"/>
<path d="M0 0 C0.66 0.33 1.32 0.66 2 1 C-0.31 3.31 -2.62 5.62 -5 8 C-5 5 -5 5 -2.5 2.3125 C-1.675 1.549375 -0.85 0.78625 0 0 Z " fill="#6D6B6A" transform="translate(1371,1192)"/>
<path d="M0 0 C0.99 0.33 1.98 0.66 3 1 C1.37660195 2.70884005 -0.29319053 4.37446717 -2 6 C-2.66 6 -3.32 6 -4 6 C-2.84826645 3.53199953 -1.95216435 1.95216435 0 0 Z " fill="#605C5D" transform="translate(1233,959)"/>
<path d="M0 0 C0.66 0.33 1.32 0.66 2 1 C0.3125 3.0625 0.3125 3.0625 -2 5 C-4.75 4.75 -4.75 4.75 -7 4 C-4.66603411 2.44402274 -2.57343171 1.07918104 0 0 Z " fill="#929090" transform="translate(1268,696)"/>
<path d="M0 0 C2 1 2 1 2 1 Z " fill="#E6E6E6" transform="translate(1270,695)"/>
<path d="" fill="#EEEEEE" transform="translate(0,0)"/>
</svg>
