<?xml version="1.0" encoding="UTF-8"?>
<svg version="1.1" xmlns="http://www.w3.org/2000/svg" width="1772" height="1299">
<path d="M0 0 C209.22 0 418.44 0 634 0 C634 66.66 634 133.32 634 202 C519.49 202 404.98 202 287 202 C287 483.49 287 764.98 287 1055 C199.22 1055 111.44 1055 21 1055 C21 773.51 21 492.02 21 202 C-22.89 202 -66.78 202 -112 202 C-111 198 -111 198 -108 196 C-107.01 196 -106.02 196 -105 196 C-105 195.34 -105 194.68 -105 194 C-103.68 193.67 -102.36 193.34 -101 193 C-101 192.34 -101 191.68 -101 191 C-100.01 191 -99.02 191 -98 191 C-98 190.34 -98 189.68 -98 189 C-96.68 188.67 -95.36 188.34 -94 188 C-94 187.34 -94 186.68 -94 186 C-92.68 185.67 -91.36 185.34 -90 185 C-90 184.34 -90 183.68 -90 183 C-89.34 183 -88.68 183 -88 183 C-88 182.34 -88 181.68 -88 181 C-86.68 180.67 -85.36 180.34 -84 180 C-84 179.34 -84 178.68 -84 178 C-82.42578125 176.484375 -82.42578125 176.484375 -80.3125 174.75 C-76.78266661 171.75893065 -73.95726175 168.56387954 -71 165 C-69.24699272 163.43822988 -67.44669023 161.94513189 -65.640625 160.4453125 C-62.52181684 157.69779103 -60.29166361 154.43749542 -58 151 C-57.34 151 -56.68 151 -56 151 C-56 150.34 -56 149.68 -56 149 C-55.34 149 -54.68 149 -54 149 C-53.71125 148.236875 -53.4225 147.47375 -53.125 146.6875 C-52 144 -52 144 -50 141 C-49.34 141 -48.68 141 -48 141 C-47.896875 140.21625 -47.79375 139.4325 -47.6875 138.625 C-47 136 -47 136 -44 134 C-42.80767387 131.94996045 -42.80767387 131.94996045 -42 130 C-41.34 130 -40.68 130 -40 130 C-39.87625 129.4225 -39.7525 128.845 -39.625 128.25 C-38.99351176 125.97664233 -38.11141809 124.0746471 -37 122 C-36.34 122 -35.68 122 -35 122 C-34.67 120.35 -34.34 118.7 -34 117 C-33.34 117 -32.68 117 -32 117 C-31.814375 115.63875 -31.814375 115.63875 -31.625 114.25 C-31.07890323 111.41029677 -30.42736197 109.47409409 -29 107 C-28.34 107 -27.68 107 -27 107 C-26.67 105.02 -26.34 103.04 -26 101 C-25.34 101 -24.68 101 -24 101 C-23.814375 99.63875 -23.814375 99.63875 -23.625 98.25 C-23.07890323 95.41029677 -22.42736197 93.47409409 -21 91 C-20.34 91 -19.68 91 -19 91 C-18.67 88.36 -18.34 85.72 -18 83 C-17.34 83 -16.68 83 -16 83 C-16 81.35 -16 79.7 -16 78 C-15.34 78 -14.68 78 -14 78 C-13.67 75.03 -13.34 72.06 -13 69 C-12.34 69 -11.68 69 -11 69 C-10.67 65.37 -10.34 61.74 -10 58 C-9.34 58 -8.68 58 -8 58 C-8.020625 57.030625 -8.04125 56.06125 -8.0625 55.0625 C-8 52 -8 52 -7 51 C-6.60056824 48.47804033 -6.24920152 45.97036344 -5.9375 43.4375 C-5.84662109 42.72658203 -5.75574219 42.01566406 -5.66210938 41.28320312 C-5.43760497 39.52261597 -5.21831603 37.76136522 -5 36 C-4.34 36 -3.68 36 -3 36 C-2.67 27.42 -2.34 18.84 -2 10 C-1.34 10 -0.68 10 0 10 C0 6.7 0 3.4 0 0 Z " fill="#060000" transform="translate(410,78)"/>
<path d="M0 0 C1.28445692 0.00334608 1.28445692 0.00334608 2.59486246 0.00675976 C3.49747639 0.00519977 4.40009032 0.00363978 5.33005619 0.00203252 C8.3787497 -0.00198156 11.4273941 0.00121373 14.47608805 0.00434887 C16.65192554 0.00299501 18.82776281 0.00121517 21.00359964 -0.00096118 C26.93111017 -0.00553733 32.85860337 -0.00374521 38.78611422 -0.0005821 C44.97431725 0.00194057 51.16251875 -0.00039577 57.35072184 -0.00196826 C68.41165556 -0.00390711 79.47258159 -0.00078935 90.53351408 0.00429107 C100.57215594 0.00875911 110.61078624 0.00798318 120.64942789 0.00337231 C132.29349439 -0.00195475 143.93755364 -0.00397431 155.58162117 -0.00101542 C161.75036983 0.00054778 167.91911052 0.00073993 174.08785868 -0.00255191 C179.8858436 -0.0054295 185.68380657 -0.00345702 191.48178911 0.00234234 C193.61639542 0.00367055 195.75100356 0.00327481 197.88560915 0.00107968 C200.78635895 -0.00162947 203.68703722 0.0017464 206.58778238 0.00675976 C207.8722393 0.00341368 207.8722393 0.00341368 209.18264484 0 C214.9771726 0.01959358 214.9771726 0.01959358 216.09132242 1.13374341 C216.20181069 4.24321232 216.24629991 7.33094398 216.24954081 10.44125378 C216.25447878 11.43032788 216.25941676 12.41940197 216.26450437 13.43844801 C216.279962 16.77966773 216.28826224 20.12086812 216.29664469 23.46211255 C216.30621673 25.84646794 216.3162264 28.23082161 216.32664347 30.61517346 C216.35094961 36.43504476 216.37066534 42.2549188 216.38839621 48.07481355 C216.40926488 54.84431069 216.43573419 61.61378234 216.46256768 68.38325804 C216.51027493 80.45640522 216.55353059 92.52956412 216.59400797 104.60273755 C216.63334698 116.3335411 216.67478077 128.06433417 216.71900797 139.79512036 C216.72175747 140.52508809 216.72450698 141.25505583 216.7273398 142.0071438 C216.75127326 148.35640592 216.77536592 154.70566744 216.79947424 161.0549289 C216.90315272 188.4145136 216.99637285 215.7741238 217.09132242 243.13374341 C290.68132242 243.13374341 364.27132242 243.13374341 440.09132242 243.13374341 C440.09132242 299.23374341 440.09132242 355.33374341 440.09132242 413.13374341 C366.17132242 413.13374341 292.25132242 413.13374341 216.09132242 413.13374341 C216.58632242 559.15874341 216.58632242 559.15874341 217.09132242 708.13374341 C217.75132242 708.13374341 218.41132242 708.13374341 219.09132242 708.13374341 C219.22409586 709.06057934 219.3568693 709.98741528 219.49366617 710.94233716 C219.67026773 712.13987622 219.8468693 713.33741528 220.02882242 714.57124341 C220.20284586 715.76620434 220.3768693 716.96116528 220.55616617 718.19233716 C220.78117455 721.01330016 220.78117455 721.01330016 222.09132242 722.13374341 C222.13196074 723.79991456 222.13404342 725.46762435 222.09132242 727.13374341 C222.75132242 727.13374341 223.41132242 727.13374341 224.09132242 727.13374341 C224.42132242 729.44374341 224.75132242 731.75374341 225.09132242 734.13374341 C225.75132242 734.13374341 226.41132242 734.13374341 227.09132242 734.13374341 C230.09132242 739.88374341 230.09132242 739.88374341 230.09132242 742.13374341 C230.75132242 742.13374341 231.41132242 742.13374341 232.09132242 742.13374341 C233.87437767 744.77266517 235.08191863 747.10553204 236.09132242 750.13374341 C238.106406 750.86698137 238.106406 750.86698137 240.09132242 751.13374341 C240.09132242 751.79374341 240.09132242 752.45374341 240.09132242 753.13374341 C242.4234639 754.34002348 244.58774381 755.2992172 247.09132242 756.13374341 C247.09132242 756.79374341 247.09132242 757.45374341 247.09132242 758.13374341 C247.60694742 758.25749341 248.12257242 758.38124341 248.65382242 758.50874341 C251.81834593 759.32015969 254.95257227 760.22833471 258.09132242 761.13374341 C258.09132242 761.79374341 258.09132242 762.45374341 258.09132242 763.13374341 C262.71132242 763.46374341 267.33132242 763.79374341 272.09132242 764.13374341 C272.09132242 764.79374341 272.09132242 765.45374341 272.09132242 766.13374341 C283.31132242 766.13374341 294.53132242 766.13374341 306.09132242 766.13374341 C306.09132242 765.47374341 306.09132242 764.81374341 306.09132242 764.13374341 C311.04132242 763.80374341 315.99132242 763.47374341 321.09132242 763.13374341 C321.09132242 762.47374341 321.09132242 761.81374341 321.09132242 761.13374341 C330.5013452 759.02212609 330.5013452 759.02212609 335.09132242 758.13374341 C335.09132242 757.47374341 335.09132242 756.81374341 335.09132242 756.13374341 C336.52561243 755.46019841 337.96389299 754.7951464 339.40382242 754.13374341 C340.20433023 753.76249341 341.00483805 753.39124341 341.82960367 753.00874341 C344.09132242 752.13374341 344.09132242 752.13374341 347.09132242 752.13374341 C347.42132242 751.47374341 347.75132242 750.81374341 348.09132242 750.13374341 C348.42132242 750.79374341 348.75132242 751.45374341 349.09132242 752.13374341 C347.80167066 753.50937195 346.4644295 754.84140734 345.09132242 756.13374341 C344.43132242 756.13374341 343.77132242 756.13374341 343.09132242 756.13374341 C343.09132242 756.79374341 343.09132242 757.45374341 343.09132242 758.13374341 C341.44132242 758.46374341 339.79132242 758.79374341 338.09132242 759.13374341 C338.09132242 759.79374341 338.09132242 760.45374341 338.09132242 761.13374341 C337.43132242 761.13374341 336.77132242 761.13374341 336.09132242 761.13374341 C335.76132242 762.12374341 335.43132242 763.11374341 335.09132242 764.13374341 C334.43132242 764.13374341 333.77132242 764.13374341 333.09132242 764.13374341 C333.09132242 764.79374341 333.09132242 765.45374341 333.09132242 766.13374341 C332.43132242 766.13374341 331.77132242 766.13374341 331.09132242 766.13374341 C330.76132242 767.12374341 330.43132242 768.11374341 330.09132242 769.13374341 C329.43132242 769.13374341 328.77132242 769.13374341 328.09132242 769.13374341 C327.76132242 770.12374341 327.43132242 771.11374341 327.09132242 772.13374341 C326.43132242 772.13374341 325.77132242 772.13374341 325.09132242 772.13374341 C325.09132242 772.79374341 325.09132242 773.45374341 325.09132242 774.13374341 C324.43132242 774.13374341 323.77132242 774.13374341 323.09132242 774.13374341 C322.76132242 775.12374341 322.43132242 776.11374341 322.09132242 777.13374341 C321.43132242 777.13374341 320.77132242 777.13374341 320.09132242 777.13374341 C319.84382242 777.85561841 319.59632242 778.57749341 319.34132242 779.32124341 C317.9686265 782.40980922 316.36778946 784.64385758 314.09132242 787.13374341 C313.43132242 787.13374341 312.77132242 787.13374341 312.09132242 787.13374341 C311.76132242 788.78374341 311.43132242 790.43374341 311.09132242 792.13374341 C310.43132242 792.13374341 309.77132242 792.13374341 309.09132242 792.13374341 C309.09132242 793.12374341 309.09132242 794.11374341 309.09132242 795.13374341 C308.43132242 795.13374341 307.77132242 795.13374341 307.09132242 795.13374341 C306.76132242 796.78374341 306.43132242 798.43374341 306.09132242 800.13374341 C305.43132242 800.13374341 304.77132242 800.13374341 304.09132242 800.13374341 C303.76132242 802.11374341 303.43132242 804.09374341 303.09132242 806.13374341 C302.43132242 806.13374341 301.77132242 806.13374341 301.09132242 806.13374341 C301.09132242 807.12374341 301.09132242 808.11374341 301.09132242 809.13374341 C300.43132242 809.13374341 299.77132242 809.13374341 299.09132242 809.13374341 C298.76132242 811.44374341 298.43132242 813.75374341 298.09132242 816.13374341 C297.43132242 816.13374341 296.77132242 816.13374341 296.09132242 816.13374341 C295.76132242 818.77374341 295.43132242 821.41374341 295.09132242 824.13374341 C294.43132242 824.13374341 293.77132242 824.13374341 293.09132242 824.13374341 C293.09132242 825.78374341 293.09132242 827.43374341 293.09132242 829.13374341 C292.43132242 829.13374341 291.77132242 829.13374341 291.09132242 829.13374341 C290.76132242 832.76374341 290.43132242 836.39374341 290.09132242 840.13374341 C289.43132242 840.13374341 288.77132242 840.13374341 288.09132242 840.13374341 C288.03073648 841.42151684 287.97015055 842.70929028 287.90772867 844.03608716 C287.82333995 845.71448499 287.73869113 847.39286977 287.65382242 849.07124341 C287.59484781 850.34644848 287.59484781 850.34644848 287.5346818 851.64741528 C287.49278727 852.456302 287.45089273 853.26518872 287.40772867 854.09858716 C287.37107096 854.8474519 287.33441324 855.59631665 287.29664469 856.36787426 C287.09132242 858.13374341 287.09132242 858.13374341 286.09132242 859.13374341 C285.93258287 861.35062334 285.83998405 863.57229639 285.77491617 865.79389966 C285.74374453 866.79059926 285.74374453 866.79059926 285.71194315 867.8074342 C285.64638584 869.93692884 285.58753457 872.06655009 285.52882242 874.19624341 C285.48564303 875.63701188 285.44202894 877.0777674 285.39796305 878.51850903 C285.29069849 882.05678381 285.18944871 885.5952021 285.09132242 889.13374341 C285.75132242 889.13374341 286.41132242 889.13374341 287.09132242 889.13374341 C287.42132242 895.40374341 287.75132242 901.67374341 288.09132242 908.13374341 C288.75132242 908.13374341 289.41132242 908.13374341 290.09132242 908.13374341 C290.42132242 911.76374341 290.75132242 915.39374341 291.09132242 919.13374341 C291.75132242 919.13374341 292.41132242 919.13374341 293.09132242 919.13374341 C293.09132242 920.78374341 293.09132242 922.43374341 293.09132242 924.13374341 C293.75132242 924.13374341 294.41132242 924.13374341 295.09132242 924.13374341 C295.42132242 926.77374341 295.75132242 929.41374341 296.09132242 932.13374341 C293.45132242 932.46374341 290.81132242 932.79374341 288.09132242 933.13374341 C288.09132242 933.46374341 288.09132242 933.79374341 288.09132242 934.13374341 C250.19924695 936.24181774 212.9653074 936.6629359 175.09132242 934.13374341 C175.09132242 933.80374341 175.09132242 933.47374341 175.09132242 933.13374341 C174.38104898 933.07315747 173.67077555 933.01257153 172.93897867 932.95014966 C172.01987711 932.86636059 171.10077555 932.78257153 170.15382242 932.69624341 C169.23729898 932.61503247 168.32077555 932.53382153 167.37647867 932.45014966 C165.09132242 932.13374341 165.09132242 932.13374341 164.09132242 931.13374341 C161.40269578 930.73380654 158.72780025 930.38239798 156.02882242 930.07124341 C155.27020914 929.9803645 154.51159586 929.88948559 153.7299943 929.79585278 C151.85089232 929.571306 149.97116147 929.35203362 148.09132242 929.13374341 C148.09132242 928.47374341 148.09132242 927.81374341 148.09132242 927.13374341 C144.13132242 926.80374341 140.17132242 926.47374341 136.09132242 926.13374341 C136.09132242 925.47374341 136.09132242 924.81374341 136.09132242 924.13374341 C134.11132242 924.13374341 132.13132242 924.13374341 130.09132242 924.13374341 C130.09132242 923.47374341 130.09132242 922.81374341 130.09132242 922.13374341 C126.79132242 921.80374341 123.49132242 921.47374341 120.09132242 921.13374341 C120.09132242 920.47374341 120.09132242 919.81374341 120.09132242 919.13374341 C118.77132242 919.13374341 117.45132242 919.13374341 116.09132242 919.13374341 C116.09132242 918.47374341 116.09132242 917.81374341 116.09132242 917.13374341 C113.45132242 916.80374341 110.81132242 916.47374341 108.09132242 916.13374341 C108.09132242 915.47374341 108.09132242 914.81374341 108.09132242 914.13374341 C105.78132242 913.80374341 103.47132242 913.47374341 101.09132242 913.13374341 C101.09132242 912.47374341 101.09132242 911.81374341 101.09132242 911.13374341 C100.36944742 911.00999341 99.64757242 910.88624341 98.90382242 910.75874341 C96.13410348 910.14325031 93.69428702 909.24929966 91.09132242 908.13374341 C91.09132242 907.47374341 91.09132242 906.81374341 91.09132242 906.13374341 C89.11132242 905.80374341 87.13132242 905.47374341 85.09132242 905.13374341 C85.09132242 904.47374341 85.09132242 903.81374341 85.09132242 903.13374341 C84.10132242 903.13374341 83.11132242 903.13374341 82.09132242 903.13374341 C82.09132242 902.47374341 82.09132242 901.81374341 82.09132242 901.13374341 C80.44132242 900.80374341 78.79132242 900.47374341 77.09132242 900.13374341 C77.09132242 899.47374341 77.09132242 898.81374341 77.09132242 898.13374341 C76.34882242 898.05124341 75.60632242 897.96874341 74.84132242 897.88374341 C71.55609045 896.98777105 70.34534088 895.62093618 68.09132242 893.13374341 C67.43132242 892.80374341 66.77132242 892.47374341 66.09132242 892.13374341 C66.09132242 891.47374341 66.09132242 890.81374341 66.09132242 890.13374341 C65.43132242 890.13374341 64.77132242 890.13374341 64.09132242 890.13374341 C64.09132242 889.47374341 64.09132242 888.81374341 64.09132242 888.13374341 C62.77132242 887.80374341 61.45132242 887.47374341 60.09132242 887.13374341 C60.09132242 886.47374341 60.09132242 885.81374341 60.09132242 885.13374341 C59.18833414 884.98485669 59.18833414 884.98485669 58.26710367 884.83296216 C55.66254697 883.99595022 54.92469533 883.09489017 53.27882242 880.94624341 C51.21098077 878.38357818 49.15764325 876.25836434 46.59132242 874.19624341 C42.76902999 871.03795723 39.689977 867.36012667 37.09132242 863.13374341 C37.09132242 862.47374341 37.09132242 861.81374341 37.09132242 861.13374341 C36.43132242 861.13374341 35.77132242 861.13374341 35.09132242 861.13374341 C34.07266013 859.47841718 33.0732143 857.81114202 32.09132242 856.13374341 C31.43132242 855.80374341 30.77132242 855.47374341 30.09132242 855.13374341 C29.46632242 852.57124341 29.46632242 852.57124341 29.09132242 850.13374341 C28.43132242 850.13374341 27.77132242 850.13374341 27.09132242 850.13374341 C27.09132242 849.14374341 27.09132242 848.15374341 27.09132242 847.13374341 C26.43132242 846.80374341 25.77132242 846.47374341 25.09132242 846.13374341 C24.46632242 844.07124341 24.46632242 844.07124341 24.09132242 842.13374341 C23.43132242 842.13374341 22.77132242 842.13374341 22.09132242 842.13374341 C21.76132242 840.48374341 21.43132242 838.83374341 21.09132242 837.13374341 C20.43132242 837.13374341 19.77132242 837.13374341 19.09132242 837.13374341 C16.09132242 830.50874341 16.09132242 830.50874341 16.09132242 827.13374341 C15.43132242 827.13374341 14.77132242 827.13374341 14.09132242 827.13374341 C11.94846528 819.70517198 11.94846528 819.70517198 11.09132242 816.13374341 C10.43132242 816.13374341 9.77132242 816.13374341 9.09132242 816.13374341 C8.5843955 814.55261421 8.08605799 812.96872958 7.59132242 811.38374341 C7.31288492 810.50202466 7.03444742 809.62030591 6.74757242 808.71186841 C6.09132242 806.13374341 6.09132242 806.13374341 6.09132242 802.13374341 C5.43132242 802.13374341 4.77132242 802.13374341 4.09132242 802.13374341 C3.94509439 801.44747876 3.79886637 800.76121411 3.64820719 800.05415356 C2.98621985 796.95507599 2.32007439 793.85690682 1.65382242 790.75874341 C1.42372477 789.67850903 1.19362711 788.59827466 0.9565568 787.48530591 C0.62301188 785.93843091 0.62301188 785.93843091 0.28272867 784.36030591 C0.07849283 783.40720532 -0.12574301 782.45410473 -0.33616781 781.47212231 C-0.81786323 779.13063721 -0.81786323 779.13063721 -1.90867758 777.13374341 C-2.0428323 774.46138131 -1.95186298 771.81123852 -1.90867758 769.13374341 C-2.56867758 769.13374341 -3.22867758 769.13374341 -3.90867758 769.13374341 C-4.80909069 761.11041944 -5.0241508 753.20403893 -4.90867758 745.13374341 C-5.56867758 745.13374341 -6.22867758 745.13374341 -6.90867758 745.13374341 C-6.90867758 634.91374341 -6.90867758 524.69374341 -6.90867758 411.13374341 C-39.24867758 411.13374341 -71.58867758 411.13374341 -104.90867758 411.13374341 C-104.90867758 356.35374341 -104.90867758 301.57374341 -104.90867758 245.13374341 C-72.56867758 245.13374341 -40.22867758 245.13374341 -6.90867758 245.13374341 C-6.91391439 237.74749585 -6.91915121 230.36124829 -6.92454672 222.75117505 C-6.94058097 199.14489617 -6.95171328 175.53861762 -6.95974291 151.93233478 C-6.96099368 148.26843257 -6.962288 144.60453036 -6.96360922 140.94062817 C-6.96387153 140.21118048 -6.96413384 139.48173278 -6.9644041 138.73018061 C-6.96876091 126.90357672 -6.97664851 115.07697767 -6.98583037 103.25037665 C-6.99516662 91.12420906 -7.00073313 78.998044 -7.00276607 66.87187296 C-7.00414136 59.38336678 -7.00849227 51.89487427 -7.01659404 44.4063723 C-7.02248185 38.67384716 -7.02313662 32.94133086 -7.02178526 27.2088033 C-7.02206178 24.85005114 -7.02406942 22.49129849 -7.02788305 20.13254941 C-7.03281364 16.92740722 -7.03167822 13.72232491 -7.02893209 10.51718152 C-7.03184494 9.57070297 -7.03475778 8.62422443 -7.03775889 7.64906472 C-7.01993791 0.02373718 -7.01993791 0.02373718 0 0 Z " fill="#070202" transform="translate(1085.9086775779724,284.8662565946579)"/>
<path d="M0 0 C7.59 0 15.18 0 23 0 C23 0.33 23 0.66 23 1 C25.97 1.495 25.97 1.495 29 2 C29 2.66 29 3.32 29 4 C31.64 4.33 34.28 4.66 37 5 C37 5.66 37 6.32 37 7 C39.31 7.33 41.62 7.66 44 8 C44 8.66 44 9.32 44 10 C44.66 10 45.32 10 46 10 C46 10.66 46 11.32 46 12 C47.32 12.33 48.64 12.66 50 13 C50 13.66 50 14.32 50 15 C50.66 15 51.32 15 52 15 C52 15.66 52 16.32 52 17 C53.485 17.495 53.485 17.495 55 18 C55 18.66 55 19.32 55 20 C56.485 20.495 56.485 20.495 58 21 C58 21.66 58 22.32 58 23 C58.66 23 59.32 23 60 23 C60 23.66 60 24.32 60 25 C60.66 25 61.32 25 62 25 C64.04169485 27.90548882 65 29.40142046 65 33 C65.66 33 66.32 33 67 33 C67.495 36.96 67.495 36.96 68 41 C68.66 41 69.32 41 70 41 C72.71287766 54.94553638 73.22772588 69.56133511 68 83 C67.505 84.485 67.505 84.485 67 86 C66.34 86 65.68 86 65 86 C65 86.99 65 87.98 65 89 C64.34 89 63.68 89 63 89 C62.67 90.65 62.34 92.3 62 94 C61.34 94 60.68 94 60 94 C59.5978125 95.2065625 59.5978125 95.2065625 59.1875 96.4375 C58.795625 97.283125 58.40375 98.12875 58 99 C56.515 99.495 56.515 99.495 55 100 C55 100.66 55 101.32 55 102 C54.34 102 53.68 102 53 102 C53 102.66 53 103.32 53 104 C51.68 104.33 50.36 104.66 49 105 C49 105.66 49 106.32 49 107 C47.68 107.33 46.36 107.66 45 108 C45 108.66 45 109.32 45 110 C44.01 110 43.02 110 42 110 C42 110.66 42 111.32 42 112 C40.02 112.33 38.04 112.66 36 113 C36 113.66 36 114.32 36 115 C35.36191406 115.13277344 34.72382812 115.26554687 34.06640625 115.40234375 C32.82697266 115.66724609 32.82697266 115.66724609 31.5625 115.9375 C30.32693359 116.19853516 30.32693359 116.19853516 29.06640625 116.46484375 C27.02338796 116.80752994 27.02338796 116.80752994 26 118 C24.48530552 118.23192865 22.96245438 118.41215238 21.4375 118.5625 C20.61121094 118.64628906 19.78492188 118.73007813 18.93359375 118.81640625 C18.29550781 118.87699219 17.65742187 118.93757813 17 119 C17 119.33 17 119.66 17 120 C13.37 120 9.74 120 6 120 C6 119.34 6 118.68 6 118 C4.741875 118.061875 3.48375 118.12375 2.1875 118.1875 C-3.50565104 118.21469658 -8.6052464 116.69405347 -14 115 C-14 114.34 -14 113.68 -14 113 C-16.97 112.505 -16.97 112.505 -20 112 C-20 111.34 -20 110.68 -20 110 C-21.175625 109.5359375 -21.175625 109.5359375 -22.375 109.0625 C-25 108 -25 108 -27 107 C-27 106.34 -27 105.68 -27 105 C-28.32 104.67 -29.64 104.34 -31 104 C-31 103.34 -31 102.68 -31 102 C-31.66 102 -32.32 102 -33 102 C-34.01866229 100.34467377 -35.01810813 98.67739862 -36 97 C-36.66 96.67 -37.32 96.34 -38 96 C-38 95.34 -38 94.68 -38 94 C-38.66 94 -39.32 94 -40 94 C-40.495 91.525 -40.495 91.525 -41 89 C-41.66 89 -42.32 89 -43 89 C-43 88.01 -43 87.02 -43 86 C-43.66 86 -44.32 86 -45 86 C-45.33 83.36 -45.66 80.72 -46 78 C-46.66 78 -47.32 78 -48 78 C-48 75.69 -48 73.38 -48 71 C-48.66 71 -49.32 71 -50 71 C-50.08834684 67.68767302 -50.14083584 64.37565565 -50.1875 61.0625 C-50.21263672 60.13630859 -50.23777344 59.21011719 -50.26367188 58.25585938 C-50.3307123 51.88701859 -49.28928355 46.91008915 -47 41 C-46.2917428 38.67657089 -45.64759374 36.34130046 -45 34 C-44.34 34 -43.68 34 -43 34 C-43 33.01 -43 32.02 -43 31 C-42.34 31 -41.68 31 -41 31 C-40.67 29.35 -40.34 27.7 -40 26 C-39.34 26 -38.68 26 -38 26 C-38 25.01 -38 24.02 -38 23 C-37.34 23 -36.68 23 -36 23 C-35.67 22.01 -35.34 21.02 -35 20 C-34.34 20 -33.68 20 -33 20 C-32.67 19.01 -32.34 18.02 -32 17 C-31.34 17 -30.68 17 -30 17 C-30 16.34 -30 15.68 -30 15 C-29.34 15 -28.68 15 -28 15 C-28 14.34 -28 13.68 -28 13 C-26.68 12.67 -25.36 12.34 -24 12 C-24 11.34 -24 10.68 -24 10 C-23.01 10 -22.02 10 -21 10 C-21 9.34 -21 8.68 -21 8 C-19.02 7.67 -17.04 7.34 -15 7 C-15 6.34 -15 5.68 -15 5 C-12.36 4.67 -9.72 4.34 -7 4 C-7 3.34 -7 2.68 -7 2 C-4.69 2 -2.38 2 0 2 C0 1.34 0 0.68 0 0 Z " fill="#080303" transform="translate(1493,1086)"/>
<path d="M0 0 C0.33 0 0.66 0 1 0 C1 66.66 1 133.32 1 202 C-113.51 202 -228.02 202 -346 202 C-346 483.49 -346 764.98 -346 1055 C-433.78 1055 -521.56 1055 -612 1055 C-612 773.51 -612 492.02 -612 202 C-655.89 202 -699.78 202 -745 202 C-744 198 -744 198 -741.9375 196.75 C-741.298125 196.5025 -740.65875 196.255 -740 196 C-740.495 197.98 -740.495 197.98 -741 200 C-697.77 200 -654.54 200 -610 200 C-610 481.82 -610 763.64 -610 1054 C-523.54 1054 -437.08 1054 -348 1054 C-348 772.18 -348 490.36 -348 200 C-233.16 200 -118.32 200 0 200 C0 134 0 68 0 0 Z " fill="#ABA9AA" transform="translate(1043,78)"/>
<path d="M0 0 C0.33 0.66 0.66 1.32 1 2 C0.67 2.66 0.34 3.32 0 4 C43.23 4 86.46 4 131 4 C131 285.82 131 567.64 131 858 C217.46 858 303.92 858 393 858 C393 858.33 393 858.66 393 859 C305.88 859 218.76 859 129 859 C129 577.51 129 296.02 129 6 C85.11 6 41.22 6 -4 6 C-3 2 -3 2 0 0 Z " fill="#A5A3A3" transform="translate(302,274)"/>
<path d="M0 0 C0.33 0.66 0.66 1.32 1 2 C0.34 2 -0.32 2 -1 2 C-1 2.99 -1 3.98 -1 5 C41.9 5 84.8 5 129 5 C129 5.33 129 5.66 129 6 C85.11 6 41.22 6 -4 6 C-3 2 -3 2 0 0 Z " fill="#B2B3B3" transform="translate(302,274)"/>
<path d="M0 0 C0.66 0.33 1.32 0.66 2 1 C1.67 1.99 1.34 2.98 1 4 C0.34 4 -0.32 4 -1 4 C-1.33 6.97 -1.66 9.94 -2 13 C-2.66 13 -3.32 13 -4 13 C-3.76107139 17.10826601 -3.51245752 21.21582735 -3.25537109 25.32299805 C-3.16946016 26.7163962 -3.08606563 28.10995213 -3.00537109 29.50366211 C-2.42827175 39.43190818 -1.38355395 48.57438543 2 58 C1.34 58 0.68 58 0 58 C0 57.01 0 56.02 0 55 C-0.66 55 -1.32 55 -2 55 C-2.33 52.36 -2.66 49.72 -3 47 C-3.66 47 -4.32 47 -5 47 C-5 44.69 -5 42.38 -5 40 C-5.66 40 -6.32 40 -7 40 C-7.08834684 36.68767302 -7.14083584 33.37565565 -7.1875 30.0625 C-7.21263672 29.13630859 -7.23777344 28.21011719 -7.26367188 27.25585938 C-7.3307123 20.88701859 -6.28928355 15.91008915 -4 10 C-3.2917428 7.67657089 -2.64759374 5.34130046 -2 3 C-1.34 3 -0.68 3 0 3 C0 2.01 0 1.02 0 0 Z " fill="#1D1919" transform="translate(1450,1117)"/>
<path d="M0 0 C0.66 0 1.32 0 2 0 C1.67 1.65 1.34 3.3 1 5 C0.34 5 -0.32 5 -1 5 C-1.33 6.98 -1.66 8.96 -2 11 C-2.66 11 -3.32 11 -4 11 C-4 11.99 -4 12.98 -4 14 C-4.66 14 -5.32 14 -6 14 C-6.33 16.31 -6.66 18.62 -7 21 C-7.66 21 -8.32 21 -9 21 C-9.33 23.64 -9.66 26.28 -10 29 C-10.66 29 -11.32 29 -12 29 C-12 30.65 -12 32.3 -12 34 C-12.66 34 -13.32 34 -14 34 C-14.33 37.63 -14.66 41.26 -15 45 C-15.66 45 -16.32 45 -17 45 C-17.04898437 46.24136719 -17.09796875 47.48273438 -17.1484375 48.76171875 C-17.22349799 50.40366694 -17.29904439 52.04559297 -17.375 53.6875 C-17.4059375 54.50412109 -17.436875 55.32074219 -17.46875 56.16210938 C-17.67955924 60.50126633 -18.01738759 64.04283457 -20 68 C-20.33 68 -20.66 68 -21 68 C-21.47545004 58.54382689 -20.10435896 50.16899261 -18 41 C-17.34 41 -16.68 41 -16 41 C-15.9175 39.700625 -15.835 38.40125 -15.75 37.0625 C-15.26945091 32.5820864 -13.92777916 29.06011308 -11.9375 25.04296875 C-11.01770338 23.03857861 -10.46399906 21.15082896 -10 19 C-9.34 19 -8.68 19 -8 19 C-7.67 16.69 -7.34 14.38 -7 12 C-6.34 12 -5.68 12 -5 12 C-5 11.01 -5 10.02 -5 9 C-4.34 9 -3.68 9 -3 9 C-2.01 6.03 -1.02 3.06 0 0 Z " fill="#878485" transform="translate(1391,1080)"/>
<path d="M0 0 C0.99 0 1.98 0 3 0 C3 2.64 3 5.28 3 8 C3.66 8 4.32 8 5 8 C5.12117188 9.00160156 5.24234375 10.00320313 5.3671875 11.03515625 C5.53617151 12.3776403 5.70545858 13.72008623 5.875 15.0625 C5.95363281 15.71927734 6.03226563 16.37605469 6.11328125 17.05273438 C6.68558951 21.52114117 7.67416455 25.68083605 9 30 C9.23460937 30.84304688 9.46921875 31.68609375 9.7109375 32.5546875 C11.15008298 37.58323111 12.94338228 42.21087489 15.1484375 46.94921875 C16.24397402 49.58755212 16.70939616 52.16661261 17 55 C16.34 55 15.68 55 15 55 C15 54.01 15 53.02 15 52 C14.34 52 13.68 52 13 52 C12.49307308 50.4188708 11.99473557 48.83498617 11.5 47.25 C11.2215625 46.36828125 10.943125 45.4865625 10.65625 44.578125 C10 42 10 42 10 38 C9.34 38 8.68 38 8 38 C7.85377197 37.31373535 7.70754395 36.6274707 7.55688477 35.92041016 C6.89489743 32.82133259 6.22875197 29.72316341 5.5625 26.625 C5.33240234 25.54476563 5.10230469 24.46453125 4.86523438 23.3515625 C4.64287109 22.3203125 4.42050781 21.2890625 4.19140625 20.2265625 C3.98717041 19.27346191 3.78293457 18.32036133 3.57250977 17.33837891 C3.09081435 14.9968938 3.09081435 14.9968938 2 13 C1.86584528 10.3276379 1.95681459 7.67749512 2 5 C1.34 5 0.68 5 0 5 C0 3.35 0 1.7 0 0 Z " fill="#A2A0A0" transform="translate(1082,1049)"/>
<path d="M0 0 C0.33 0 0.66 0 1 0 C1.33 5.61 1.66 11.22 2 17 C1.34 17 0.68 17 0 17 C0 20.96 0 24.92 0 29 C-0.66 29 -1.32 29 -2 29 C-1.938125 30.010625 -1.87625 31.02125 -1.8125 32.0625 C-2.02642827 36.55499372 -3.04613532 39.01085961 -5 43 C-6.53166168 38.91556885 -5.63081652 35.20544343 -5 31 C-4.34 31 -3.68 31 -3 31 C-2.67 22.42 -2.34 13.84 -2 5 C-1.34 5 -0.68 5 0 5 C0 3.35 0 1.7 0 0 Z " fill="#555252" transform="translate(410,83)"/>
<path d="M0 0 C0.33 1.32 0.66 2.64 1 4 C1.66 4 2.32 4 3 4 C3.33 10.27 3.66 16.54 4 23 C4.66 23 5.32 23 6 23 C6.33 26.63 6.66 30.26 7 34 C7.66 34 8.32 34 9 34 C9 35.65 9 37.3 9 39 C9.66 39 10.32 39 11 39 C11.33 41.64 11.66 44.28 12 47 C11.01 47 10.02 47 9 47 C8.89042969 46.38253906 8.78085938 45.76507812 8.66796875 45.12890625 C7.44019485 38.57079689 6.00240807 32.00481613 3 26 C2.960008 24.00039988 2.95653201 21.99952758 3 20 C2.34 20 1.68 20 1 20 C-0.03026944 13.30324864 -0.10152799 6.7685324 0 0 Z " fill="#9B9999" transform="translate(1370,1170)"/>
<path d="M0 0 C7.59 0 15.18 0 23 0 C23.495 1.485 23.495 1.485 24 3 C23.22922119 3.05534912 22.45844238 3.11069824 21.66430664 3.16772461 C18.13023936 3.42252532 14.59637109 3.67999311 11.0625 3.9375 C9.85013672 4.02451172 8.63777344 4.11152344 7.38867188 4.20117188 C0.90612474 4.67550459 -5.54604567 5.22719641 -12 6 C-11.67 5.34 -11.34 4.68 -11 4 C-9.68 4 -8.36 4 -7 4 C-7 3.34 -7 2.68 -7 2 C-4.69 2 -2.38 2 0 2 C0 1.34 0 0.68 0 0 Z " fill="#63605F" transform="translate(1493,1086)"/>
<path d="M0 0 C0.66 0 1.32 0 2 0 C1.67 1.65 1.34 3.3 1 5 C0.01 5.33 -0.98 5.66 -2 6 C-2.99 7.485 -2.99 7.485 -4 9 C-4.66 9 -5.32 9 -6 9 C-6.33 10.32 -6.66 11.64 -7 13 C-7.66 13 -8.32 13 -9 13 C-9 13.66 -9 14.32 -9 15 C-9.66 15 -10.32 15 -11 15 C-11.26167969 15.5878125 -11.52335937 16.175625 -11.79296875 16.78125 C-14.6853195 22.09793359 -20.13391059 26.52422185 -25 30 C-25.66 30 -26.32 30 -27 30 C-27 30.66 -27 31.32 -27 32 C-31.47058824 36 -31.47058824 36 -34 36 C-34 35.34 -34 34.68 -34 34 C-33.34 34 -32.68 34 -32 34 C-32 33.34 -32 32.68 -32 32 C-30.68 31.67 -29.36 31.34 -28 31 C-28 30.34 -28 29.68 -28 29 C-26.42578125 27.484375 -26.42578125 27.484375 -24.3125 25.75 C-20.78266661 22.75893065 -17.95726175 19.56387954 -15 16 C-13.24699272 14.43822988 -11.44669023 12.94513189 -9.640625 11.4453125 C-6.52181684 8.69779103 -4.29166361 5.43749542 -2 2 C-1.34 2 -0.68 2 0 2 C0 1.34 0 0.68 0 0 Z " fill="#6D6B6C" transform="translate(354,227)"/>
<path d="M0 0 C0.99 0 1.98 0 3 0 C3 0.66 3 1.32 3 2 C3.886875 2.12375 4.77375 2.2475 5.6875 2.375 C8.72548911 2.94820549 11.1570846 3.83367573 14 5 C15.65919896 5.36871088 17.3247643 5.71281674 19 6 C19 6.66 19 7.32 19 8 C19.66386719 8.13277344 20.32773438 8.26554687 21.01171875 8.40234375 C23.67447917 8.93489583 26.33723958 9.46744792 29 10 C29.93457031 10.18691406 30.86914062 10.37382813 31.83203125 10.56640625 C32.90517578 10.78103516 32.90517578 10.78103516 34 11 C34 11.66 34 12.32 34 13 C39.445 13.495 39.445 13.495 45 14 C45 14.99 45 15.98 45 17 C42.03 16.67 39.06 16.34 36 16 C36 15.34 36 14.68 36 14 C34.02 14 32.04 14 30 14 C30 13.34 30 12.68 30 12 C26.7 11.67 23.4 11.34 20 11 C20 10.34 20 9.68 20 9 C18.68 9 17.36 9 16 9 C16 8.34 16 7.68 16 7 C13.36 6.67 10.72 6.34 8 6 C8 5.34 8 4.68 8 4 C5.69 3.67 3.38 3.34 1 3 C0.67 2.01 0.34 1.02 0 0 Z " fill="#888586" transform="translate(1186,1195)"/>
<path d="M0 0 C0.66 0.66 1.32 1.32 2 2 C0.71034824 3.37562854 -0.62689293 4.70766393 -2 6 C-2.66 6 -3.32 6 -4 6 C-4 6.66 -4 7.32 -4 8 C-5.65 8.33 -7.3 8.66 -9 9 C-9 9.66 -9 10.32 -9 11 C-9.66 11 -10.32 11 -11 11 C-11 10.34 -11 9.68 -11 9 C-12.5778125 9.7425 -12.5778125 9.7425 -14.1875 10.5 C-17.25452609 11.82779788 -19.62134936 12.30715006 -23 12 C-23 12.66 -23 13.32 -23 14 C-26.63 14.33 -30.26 14.66 -34 15 C-32 13 -32 13 -28.875 12.875 C-27.92625 12.91625 -26.9775 12.9575 -26 13 C-26 12.34 -26 11.68 -26 11 C-16.58997722 8.88838269 -16.58997722 8.88838269 -12 8 C-12 7.34 -12 6.68 -12 6 C-10.56570999 5.32645501 -9.12742943 4.66140299 -7.6875 4 C-6.88699219 3.62875 -6.08648438 3.2575 -5.26171875 2.875 C-3 2 -3 2 0 2 C0 1.34 0 0.68 0 0 Z " fill="#6B6869" transform="translate(1433,1035)"/>
<path d="M0 0 C1.17032973 3.51098919 0.74116871 4.55933314 -0.375 8 C-0.65085937 8.86625 -0.92671875 9.7325 -1.2109375 10.625 C-1.80630427 12.41699502 -2.40286453 14.20859358 -3 16 C-3.66 16 -4.32 16 -5 16 C-5 16.99 -5 17.98 -5 19 C-5.66 19 -6.32 19 -7 19 C-7.33 20.65 -7.66 22.3 -8 24 C-8.66 24 -9.32 24 -10 24 C-10.268125 24.804375 -10.53625 25.60875 -10.8125 26.4375 C-11.204375 27.283125 -11.59625 28.12875 -12 29 C-12.99 29.33 -13.98 29.66 -15 30 C-15 30.66 -15 31.32 -15 32 C-15.66 32 -16.32 32 -17 32 C-17 32.66 -17 33.32 -17 34 C-18.98 34.495 -18.98 34.495 -21 35 C-21 35.66 -21 36.32 -21 37 C-22.485 37.495 -22.485 37.495 -24 38 C-24 37.34 -24 36.68 -24 36 C-23.34 36 -22.68 36 -22 36 C-22 35.34 -22 34.68 -22 34 C-20.85423404 32.95244255 -19.6560644 31.96190283 -18.4375 31 C-10.38854961 24.10496993 -6.07321335 16.04043616 -3 6 C-2.34 6 -1.68 6 -1 6 C-1.020625 5.195625 -1.04125 4.39125 -1.0625 3.5625 C-1 1 -1 1 0 0 Z " fill="#9B9999" transform="translate(1563,1156)"/>
<path d="M0 0 C0.66 0 1.32 0 2 0 C1.67 2.31 1.34 4.62 1 7 C0.34 7 -0.32 7 -1 7 C-1.07605469 8.14339844 -1.15210938 9.28679687 -1.23046875 10.46484375 C-1.85658257 15.44634126 -3.865953 19.23700491 -6.3125 23.5625 C-6.70373047 24.27857422 -7.09496094 24.99464844 -7.49804688 25.73242188 C-9.94207739 30.18679921 -12.46992605 34.59408174 -15 39 C-16.39195915 34.82412255 -14.82323219 32.86525224 -13 29 C-12.34 29 -11.68 29 -11 29 C-10.67 27.02 -10.34 25.04 -10 23 C-9.34 23 -8.68 23 -8 23 C-7.87625 22.0925 -7.7525 21.185 -7.625 20.25 C-7.07890323 17.41029677 -6.42736197 15.47409409 -5 13 C-4.34 13 -3.68 13 -3 13 C-2.67 10.36 -2.34 7.72 -2 5 C-1.34 5 -0.68 5 0 5 C0 3.35 0 1.7 0 0 Z " fill="#949293" transform="translate(394,156)"/>
<path d="M0 0 C4.0389955 1.38479846 6.73348406 3.27790338 10 6 C11.19951953 6.90760106 12.40828644 7.80308216 13.625 8.6875 C14.19476562 9.10386719 14.76453125 9.52023437 15.3515625 9.94921875 C17.13534079 11.18026857 17.13534079 11.18026857 20 12 C20 12.66 20 13.32 20 14 C20.7425 14.12375 21.485 14.2475 22.25 14.375 C24.80141485 14.95486701 26.7267573 15.73708739 29 17 C29 17.99 29 18.98 29 20 C28.34 20 27.68 20 27 20 C27 19.34 27 18.68 27 18 C25.02 17.67 23.04 17.34 21 17 C21 16.34 21 15.68 21 15 C20.01 15 19.02 15 18 15 C18 14.34 18 13.68 18 13 C15.525 12.505 15.525 12.505 13 12 C13 11.34 13 10.68 13 10 C12.2575 9.9175 11.515 9.835 10.75 9.75 C7.46476803 8.85402764 6.25401846 7.48719278 4 5 C3.34 4.67 2.68 4.34 2 4 C2 3.34 2 2.68 2 2 C1.34 2 0.68 2 0 2 C0 1.34 0 0.68 0 0 Z " fill="#929191" transform="translate(1150,1173)"/>
<path d="M0 0 C0.66 0 1.32 0 2 0 C1.67 1.65 1.34 3.3 1 5 C0.34 5 -0.32 5 -1 5 C-1.33 6.98 -1.66 8.96 -2 11 C-2.66 11 -3.32 11 -4 11 C-4 11.99 -4 12.98 -4 14 C-4.66 14 -5.32 14 -6 14 C-6.33 16.31 -6.66 18.62 -7 21 C-7.66 21 -8.32 21 -9 21 C-9.33 23.64 -9.66 26.28 -10 29 C-10.66 29 -11.32 29 -12 29 C-12 30.65 -12 32.3 -12 34 C-12.66 34 -13.32 34 -14 34 C-13.43179252 28.54520815 -12.05362055 24.08940744 -10 19 C-9.34 19 -8.68 19 -8 19 C-7.67 16.69 -7.34 14.38 -7 12 C-6.34 12 -5.68 12 -5 12 C-5 11.01 -5 10.02 -5 9 C-4.34 9 -3.68 9 -3 9 C-2.01 6.03 -1.02 3.06 0 0 Z " fill="#A19F9F" transform="translate(1391,1080)"/>
<path d="M0 0 C6.27 0 12.54 0 19 0 C19 0.66 19 1.32 19 2 C15.13276369 3.26582219 11.26848738 3.1118765 7.25 3.0625 C6.55261719 3.05798828 5.85523438 3.05347656 5.13671875 3.04882812 C3.42444197 3.0371002 1.71220967 3.01916653 0 3 C0 2.01 0 1.02 0 0 Z " fill="#6B6868" transform="translate(1341,1217)"/>
<path d="M0 0 C0.33 0 0.66 0 1 0 C0.27200985 9.52134483 -1.96438422 17.36064778 -6 26 C-6.87840996 22.90279155 -6.99435406 21.09354597 -6 18 C-5.34 18 -4.68 18 -4 18 C-3.67 14.37 -3.34 10.74 -3 7 C-2.34 7 -1.68 7 -1 7 C-1.020625 6.030625 -1.04125 5.06125 -1.0625 4.0625 C-1 1 -1 1 0 0 Z " fill="#969494" transform="translate(403,129)"/>
<path d="M0 0 C2.97 0 5.94 0 9 0 C9 0.66 9 1.32 9 2 C12.63 2 16.26 2 20 2 C20 2.99 20 3.98 20 5 C17.36 5 14.72 5 12 5 C12 4.67 12 4.34 12 4 C11.30132813 3.96261719 10.60265625 3.92523437 9.8828125 3.88671875 C8.97273438 3.82097656 8.06265625 3.75523438 7.125 3.6875 C6.22007813 3.62949219 5.31515625 3.57148437 4.3828125 3.51171875 C2 3 2 3 0 0 Z " fill="#878585" transform="translate(1249,1214)"/>
<path d="M0 0 C5.61 0 11.22 0 17 0 C17 0.99 17 1.98 17 3 C15.10424749 3.02721176 13.20838021 3.04649136 11.3125 3.0625 C9.72888672 3.07990234 9.72888672 3.07990234 8.11328125 3.09765625 C5.27589738 3.00865425 2.7561081 2.64939838 0 2 C0 1.34 0 0.68 0 0 Z " fill="#6E6B6C" transform="translate(1272,1217)"/>
<path d="M0 0 C2.31 0.33 4.62 0.66 7 1 C7 1.66 7 2.32 7 3 C10.63 3.33 14.26 3.66 18 4 C18 4.99 18 5.98 18 7 C15.03 6.67 12.06 6.34 9 6 C9 5.34 9 4.68 9 4 C7.02 4 5.04 4 3 4 C3 3.34 3 2.68 3 2 C2.01 2 1.02 2 0 2 C0 1.34 0 0.68 0 0 Z " fill="#706D6D" transform="translate(1213,1205)"/>
<path d="M0 0 C0.66 0 1.32 0 2 0 C2.33 1.98 2.66 3.96 3 6 C3.66 6 4.32 6 5 6 C5.12117188 6.58007812 5.24234375 7.16015625 5.3671875 7.7578125 C6.33735474 12.28028442 7.43397783 16.63750966 9 21 C8.34 21 7.68 21 7 21 C7 20.01 7 19.02 7 18 C6.34 18 5.68 18 5 18 C4.67 15.36 4.34 12.72 4 10 C3.34 10 2.68 10 2 10 C2 7.69 2 5.38 2 3 C1.34 3 0.68 3 0 3 C0 2.01 0 1.02 0 0 Z " fill="#8C8A8A" transform="translate(1443,1154)"/>
<path d="M0 0 C6.75 2.875 6.75 2.875 9 4 C9 4.66 9 5.32 9 6 C11.31 6.33 13.62 6.66 16 7 C16 7.66 16 8.32 16 9 C17.32 9.33 18.64 9.66 20 10 C17.3333581 11.33332095 15.83319697 10.67102033 13 10 C13 9.34 13 8.68 13 8 C10.03 7.505 10.03 7.505 7 7 C7 6.34 7 5.68 7 5 C6.21625 4.690625 5.4325 4.38125 4.625 4.0625 C2 3 2 3 0 2 C0 1.34 0 0.68 0 0 Z " fill="#8A8888" transform="translate(1466,1191)"/>
<path d="M0 0 C0.66 0.33 1.32 0.66 2 1 C1.67 1.99 1.34 2.98 1 4 C0.34 4 -0.32 4 -1 4 C-1.33 6.97 -1.66 9.94 -2 13 C-2.66 13 -3.32 13 -4 13 C-4 15.64 -4 18.28 -4 21 C-4.99 21.33 -5.98 21.66 -7 22 C-5.9559635 15.31816637 -4.5957524 9.2534035 -2 3 C-1.34 3 -0.68 3 0 3 C0 2.01 0 1.02 0 0 Z " fill="#979595" transform="translate(1450,1117)"/>
<path d="M0 0 C6.93 0 13.86 0 21 0 C21 0.33 21 0.66 21 1 C17.23065127 1.53198072 13.45936171 2.04866518 9.6875 2.5625 C8.61564453 2.71396484 7.54378906 2.86542969 6.43945312 3.02148438 C5.41142578 3.16005859 4.38339844 3.29863281 3.32421875 3.44140625 C1.9024231 3.63778687 1.9024231 3.63778687 0.4519043 3.83813477 C-2 4 -2 4 -5 3 C-3.35 2.67 -1.7 2.34 0 2 C0 1.34 0 0.68 0 0 Z " fill="#3F3B3C" transform="translate(1486,1088)"/>
<path d="M0 0 C-0.33 0.99 -0.66 1.98 -1 3 C-1.66 3 -2.32 3 -3 3 C-3 3.66 -3 4.32 -3 5 C-3.66 5 -4.32 5 -5 5 C-5.33 5.99 -5.66 6.98 -6 8 C-6.66 8 -7.32 8 -8 8 C-8.33 8.99 -8.66 9.98 -9 11 C-9.66 11 -10.32 11 -11 11 C-11 11.66 -11 12.32 -11 13 C-11.66 13 -12.32 13 -13 13 C-12.67 11.68 -12.34 10.36 -12 9 C-11.34 9 -10.68 9 -10 9 C-10 8.34 -10 7.68 -10 7 C-8.625 5.375 -8.625 5.375 -7 4 C-6.34 4 -5.68 4 -5 4 C-5 3.34 -5 2.68 -5 2 C-2 0 -2 0 0 0 Z " fill="#656364" transform="translate(1422,1046)"/>
<path d="M0 0 C0.99 0.33 1.98 0.66 3 1 C3 6.28 3 11.56 3 17 C2.67 17 2.34 17 2 17 C2 15.02 2 13.04 2 11 C1.34 11 0.68 11 0 11 C0 7.37 0 3.74 0 0 Z " fill="#787676" transform="translate(1079,1019)"/>
<path d="M0 0 C6.93 0.495 6.93 0.495 14 1 C14 1.99 14 2.98 14 4 C9.71 3.67 5.42 3.34 1 3 C0.67 2.01 0.34 1.02 0 0 Z " fill="#6F6D6D" transform="translate(1233,1211)"/>
<path d="M0 0 C5.28 0 10.56 0 16 0 C15.01 1.485 15.01 1.485 14 3 C11.3984375 3.29296875 11.3984375 3.29296875 8.375 3.1875 C6.87066406 3.14689453 6.87066406 3.14689453 5.3359375 3.10546875 C4.56507812 3.07066406 3.79421875 3.03585937 3 3 C3 2.34 3 1.68 3 1 C2.01 0.67 1.02 0.34 0 0 Z " fill="#A19FA0" transform="translate(1496,1203)"/>
<path d="M0 0 C0.33 1.32 0.66 2.64 1 4 C1.66 4 2.32 4 3 4 C3.11138159 9.45769811 2.91657981 14.61509359 2 20 C1.67 20 1.34 20 1 20 C-0.03026944 13.30324864 -0.10152799 6.7685324 0 0 Z " fill="#757273" transform="translate(1370,1170)"/>
<path d="M0 0 C0.99 0.495 0.99 0.495 2 1 C2 1.99 2 2.98 2 4 C2.66 4 3.32 4 4 4 C4.33 6.64 4.66 9.28 5 12 C5.66 12 6.32 12 7 12 C7.33 14.64 7.66 17.28 8 20 C7.34 20 6.68 20 6 20 C5.72736328 19.03900391 5.72736328 19.03900391 5.44921875 18.05859375 C4.25812495 13.96000943 3.0682471 9.95858643 1.3125 6.0625 C0 3 0 3 0 0 Z " fill="#A4A2A2" transform="translate(1556,1115)"/>
<path d="M0 0 C0.99 0 1.98 0 3 0 C3 2.64 3 5.28 3 8 C3.66 8 4.32 8 5 8 C5 10.31 5 12.62 5 15 C4.34 15 3.68 15 3 15 C1.39274365 11.78548731 1.94251815 8.56387464 2 5 C1.34 5 0.68 5 0 5 C0 3.35 0 1.7 0 0 Z " fill="#716E6D" transform="translate(1082,1049)"/>
<path d="M0 0 C3 0 3 0 4.60546875 1.4609375 C5.12753906 2.09257813 5.64960937 2.72421875 6.1875 3.375 C6.71730469 4.00148438 7.24710938 4.62796875 7.79296875 5.2734375 C9 7 9 7 9 9 C9.66 9 10.32 9 11 9 C12.32 11.31 13.64 13.62 15 16 C13 16 13 16 11.4140625 14.42578125 C10.82367187 13.72839844 10.23328125 13.03101563 9.625 12.3125 C9.00753906 11.58417969 8.39007812 10.85585937 7.75390625 10.10546875 C7.17511719 9.41066406 6.59632812 8.71585938 6 8 C5.195625 7.05125 4.39125 6.1025 3.5625 5.125 C2 3 2 3 2 1 C1.34 0.67 0.68 0.34 0 0 Z " fill="#ACAAAA" transform="translate(1121,1145)"/>
<path d="M0 0 C0.66 0 1.32 0 2 0 C1.67 1.65 1.34 3.3 1 5 C0.01 5.33 -0.98 5.66 -2 6 C-2.99 7.485 -2.99 7.485 -4 9 C-4.66 9 -5.32 9 -6 9 C-6.33 10.32 -6.66 11.64 -7 13 C-8.32 13.33 -9.64 13.66 -11 14 C-10 11 -10 11 -7.625 9.125 C-4.93005787 6.94338018 -3.72399853 4.95542606 -2 2 C-1.34 2 -0.68 2 0 2 C0 1.34 0 0.68 0 0 Z " fill="#969595" transform="translate(354,227)"/>
<path d="M0 0 C3.3 0.99 6.6 1.98 10 3 C10 3.66 10 4.32 10 5 C12.31 5.33 14.62 5.66 17 6 C17 6.33 17 6.66 17 7 C10.80481527 6.58411954 5.73310689 5.39748106 0 3 C0 2.01 0 1.02 0 0 Z " fill="#7B7979" transform="translate(1334,1043)"/>
<path d="M0 0 C2.47682859 3.71524288 2.43538538 6.69638294 2 11 C1 14 1 14 0 16 C-0.33 16 -0.66 16 -1 16 C-1.02712153 14.083412 -1.04645097 12.1667127 -1.0625 10.25 C-1.07410156 9.18265625 -1.08570313 8.1153125 -1.09765625 7.015625 C-1.01510087 4.46631499 -0.74617558 2.42066409 0 0 Z " fill="#767574" transform="translate(1371,1132)"/>
<path d="M0 0 C3 1 3 1 4.6875 4.375 C6 8 6 8 6 11 C6.66 11 7.32 11 8 11 C8.33 12.98 8.66 14.96 9 17 C8.34 17 7.68 17 7 17 C4 10.375 4 10.375 4 7 C3.34 7 2.68 7 2 7 C1.34 4.69 0.68 2.38 0 0 Z " fill="#AEACAC" transform="translate(1098,1105)"/>
<path d="M0 0 C0.33 0 0.66 0 1 0 C1 4.29 1 8.58 1 13 C0.01 13.33 -0.98 13.66 -2 14 C-2 11.03 -2 8.06 -2 5 C-1.34 5 -0.68 5 0 5 C0 3.35 0 1.7 0 0 Z " fill="#929091" transform="translate(410,83)"/>
<path d="M0 0 C3.96 0 7.92 0 12 0 C9 3 9 3 6.73828125 3.29296875 C5.93777344 3.25816406 5.13726563 3.22335937 4.3125 3.1875 C3.10013672 3.14689453 3.10013672 3.14689453 1.86328125 3.10546875 C0.94095703 3.05326172 0.94095703 3.05326172 0 3 C0 2.01 0 1.02 0 0 Z " fill="#858383" transform="translate(1365,1216)"/>
<path d="M0 0 C0.33 0 0.66 0 1 0 C1.34615998 5.65394631 0.43425238 9.03006806 -2 14 C-3.53166168 9.91556885 -2.63081652 6.20544343 -2 2 C-1.34 2 -0.68 2 0 2 C0 1.34 0 0.68 0 0 Z " fill="#939091" transform="translate(407,112)"/>
<path d="M0 0 C0.66 0.33 1.32 0.66 2 1 C1.34 2.65 0.68 4.3 0 6 C-0.66 6 -1.32 6 -2 6 C-2.33 7.32 -2.66 8.64 -3 10 C-3.99 10 -4.98 10 -6 10 C-5.67 8.68 -5.34 7.36 -5 6 C-4.34 6 -3.68 6 -3 6 C-3 5.01 -3 4.02 -3 3 C-2.34 3 -1.68 3 -1 3 C-0.67 2.01 -0.34 1.02 0 0 Z " fill="#7F7D7D" transform="translate(1458,1106)"/>
<path d="M0 0 C4 0 4 0 5.921875 1.75 C6.52515625 2.4925 7.1284375 3.235 7.75 4 C8.36359375 4.7425 8.9771875 5.485 9.609375 6.25 C10.06828125 6.8275 10.5271875 7.405 11 8 C10.01 8.495 10.01 8.495 9 9 C8.34 8.67 7.68 8.34 7 8 C7 7.34 7 6.68 7 6 C6.401875 5.938125 5.80375 5.87625 5.1875 5.8125 C2.12856542 4.6763243 1.44958901 2.82669858 0 0 Z " fill="#797778" transform="translate(1139,1164)"/>
<path d="M0 0 C2.77579761 2.77579761 2.86061387 5.30306937 3.625 9.125 C3.88539062 10.40632813 4.14578125 11.68765625 4.4140625 13.0078125 C4.60742188 13.99523438 4.80078125 14.98265625 5 16 C4.34 16 3.68 16 3 16 C1.35199144 12.33552568 0.66419027 9.18796534 0.375 5.1875 C0.30023437 4.21167969 0.22546875 3.23585938 0.1484375 2.23046875 C0.09945313 1.49441406 0.05046875 0.75835938 0 0 Z " fill="#959394" transform="translate(1086,1064)"/>
<path d="M0 0 C1.1615882 3.48476459 0.77669581 4.67248371 -0.25 8.125 C-0.50265625 9.01445313 -0.7553125 9.90390625 -1.015625 10.8203125 C-1.50289062 11.89925781 -1.50289062 11.89925781 -2 13 C-2.99 13.33 -3.98 13.66 -5 14 C-4.33333333 11.33333333 -3.66666667 8.66666667 -3 6 C-2.34 6 -1.68 6 -1 6 C-1.020625 5.195625 -1.04125 4.39125 -1.0625 3.5625 C-1 1 -1 1 0 0 Z " fill="#8E8C8D" transform="translate(1563,1156)"/>
<path d="M0 0 C0.33 0.66 0.66 1.32 1 2 C-0.32 2 -1.64 2 -3 2 C-3 2.66 -3 3.32 -3 4 C-6.63 4.33 -10.26 4.66 -14 5 C-12 3 -12 3 -8.875 2.875 C-7.92625 2.91625 -6.9775 2.9575 -6 3 C-6 2.34 -6 1.68 -6 1 C-4.02 0.67 -2.04 0.34 0 0 Z " fill="#828080" transform="translate(1413,1045)"/>
<path d="M0 0 C0.99 0 1.98 0 3 0 C3 3.3 3 6.6 3 10 C2.34 10 1.68 10 1 10 C0.67 6.7 0.34 3.4 0 0 Z " fill="#6D6A6B" transform="translate(1081,1037)"/>
<path d="M0 0 C2.97 0 5.94 0 9 0 C9.33 0.99 9.66 1.98 10 3 C8.72125 3.061875 7.4425 3.12375 6.125 3.1875 C5.40570312 3.22230469 4.68640625 3.25710938 3.9453125 3.29296875 C3.30335937 3.19628906 2.66140625 3.09960938 2 3 C1.34 2.01 0.68 1.02 0 0 Z " fill="#656262" transform="translate(1249,1214)"/>
<path d="M0 0 C0.33 1.32 0.66 2.64 1 4 C1.66 4 2.32 4 3 4 C3.33 7.96 3.66 11.92 4 16 C0.42530375 12.42530375 0.03082717 7.97105579 -0.125 3.0625 C-0.08375 2.051875 -0.0425 1.04125 0 0 Z " fill="#908D8E" transform="translate(1302,989)"/>
<path d="M0 0 C0.99 0 1.98 0 3 0 C2.67 5.61 2.34 11.22 2 17 C1.67 17 1.34 17 1 17 C0.67 11.39 0.34 5.78 0 0 Z " fill="#131010" transform="translate(410,78)"/>
<path d="M0 0 C1.32 0.33 2.64 0.66 4 1 C4 1.66 4 2.32 4 3 C6.33214148 4.20628008 8.49642139 5.1654738 11 6 C10.67 6.99 10.34 7.98 10 9 C4.93126149 6.92642516 2.73152399 4.72763768 0 0 Z " fill="#8C8A8A" transform="translate(1322,1035)"/>
<path d="M0 0 C0 0.66 0 1.32 0 2 C-0.99 2 -1.98 2 -3 2 C-3 2.66 -3 3.32 -3 4 C-4.98 4.33 -6.96 4.66 -9 5 C-9 5.66 -9 6.32 -9 7 C-9.66 7 -10.32 7 -11 7 C-10 4 -10 4 -8.22265625 2.83203125 C-7.50980469 2.49558594 -6.79695313 2.15914062 -6.0625 1.8125 C-5.35222656 1.46832031 -4.64195313 1.12414063 -3.91015625 0.76953125 C-2 0 -2 0 0 0 Z " fill="#959394" transform="translate(1538,1194)"/>
<path d="M0 0 C0.33 0.66 0.66 1.32 1 2 C-0.61000397 5.13950774 -2.38499232 7.63404067 -5 10 C-5.66 9.67 -6.32 9.34 -7 9 C-5.03681826 5.46627288 -2.95929119 2.75520215 0 0 Z " fill="#939191" transform="translate(1405,1062)"/>
<path d="M0 0 C0.66 0.33 1.32 0.66 2 1 C1.34 2.65 0.68 4.3 0 6 C-0.66 6 -1.32 6 -2 6 C-2.103125 6.78375 -2.20625 7.5675 -2.3125 8.375 C-3 11 -3 11 -6 13 C-5.37240135 10.07120629 -4.41377341 7.63904371 -3 5 C-2.34 5 -1.68 5 -1 5 C-0.67 3.35 -0.34 1.7 0 0 Z " fill="#999797" transform="translate(376,195)"/>
<path d="M0 0 C0.66 0.66 1.32 1.32 2 2 C0.25 4 0.25 4 -2 6 C-3.32 6 -4.64 6 -6 6 C-5.67 5.01 -5.34 4.02 -5 3 C-3.35 2.67 -1.7 2.34 0 2 C0 1.34 0 0.68 0 0 Z " fill="#DCDCDC" transform="translate(1433,1035)"/>
<path d="M0 0 C2.22825644 2.22825644 2.69239369 3.65761628 3.625 6.625 C4.01558594 7.85089844 4.01558594 7.85089844 4.4140625 9.1015625 C4.60742188 9.72804688 4.80078125 10.35453125 5 11 C4.34 11 3.68 11 3 11 C3 10.01 3 9.02 3 8 C2.34 8 1.68 8 1 8 C0.67 5.36 0.34 2.72 0 0 Z " fill="#A4A2A3" transform="translate(1447,1164)"/>
<path d="M0 0 C0.99 0 1.98 0 3 0 C3.33 2.31 3.66 4.62 4 7 C3.01 7 2.02 7 1 7 C0.67 4.69 0.34 2.38 0 0 Z " fill="#838281" transform="translate(1378,1210)"/>
<path d="M0 0 C0.99 0.33 1.98 0.66 3 1 C3 3.31 3 5.62 3 8 C2.67 7.34 2.34 6.68 2 6 C1.34 6 0.68 6 0 6 C0 4.02 0 2.04 0 0 Z " fill="#464243" transform="translate(1443,1148)"/>
<path d="M0 0 C0.99 0 1.98 0 3 0 C3.66 2.64 4.32 5.28 5 8 C4.34 8 3.68 8 3 8 C3 7.01 3 6.02 3 5 C2.34 4.67 1.68 4.34 1 4 C0.375 1.9375 0.375 1.9375 0 0 Z " fill="#868384" transform="translate(1110,1127)"/>
<path d="M0 0 C0.66 0 1.32 0 2 0 C1.56802365 4.7517398 0.67230705 6.92000054 -3 10 C-2.49287967 6.28111761 -1.88391785 3.26545761 0 0 Z " fill="#B1AFAF" transform="translate(381,185)"/>
<path d="M0 0 C0.66 0 1.32 0 2 0 C1.33333333 3.33333333 0.66666667 6.66666667 0 10 C-0.33 10 -0.66 10 -1 10 C-1.02689216 8.52093108 -1.04634621 7.04172517 -1.0625 5.5625 C-1.07410156 4.73878906 -1.08570313 3.91507813 -1.09765625 3.06640625 C-1 1 -1 1 0 0 Z " fill="#363132" transform="translate(1562,1152)"/>
<path d="M0 0 C0.99 0.495 0.99 0.495 2 1 C2 1.99 2 2.98 2 4 C2.66 4 3.32 4 4 4 C4 5.98 4 7.96 4 10 C3.34 9.67 2.68 9.34 2 9 C1.3671875 6.93359375 1.3671875 6.93359375 0.875 4.4375 C0.70742187 3.61121094 0.53984375 2.78492188 0.3671875 1.93359375 C0.24601562 1.29550781 0.12484375 0.65742187 0 0 Z " fill="#868484" transform="translate(1556,1115)"/>
<path d="M0 0 C0.99 0 1.98 0 3 0 C3 2.64 3 5.28 3 8 C2.67 7.01 2.34 6.02 2 5 C1.34 5 0.68 5 0 5 C0 3.35 0 1.7 0 0 Z " fill="#8A8888" transform="translate(1082,1049)"/>
<path d="M0 0 C0 0.66 0 1.32 0 2 C-1.32 2.33 -2.64 2.66 -4 3 C-4 2.34 -4 1.68 -4 1 C-5.32 1.33 -6.64 1.66 -8 2 C-8 1.34 -8 0.68 -8 0 C-4.71023192 -1.09658936 -3.28696233 -0.79953138 0 0 Z " fill="#A29FA0" transform="translate(1429,1041)"/>
<path d="M0 0 C2.31 0.33 4.62 0.66 7 1 C7 1.99 7 2.98 7 4 C5.68 4 4.36 4 3 4 C3 3.34 3 2.68 3 2 C2.01 2 1.02 2 0 2 C0 1.34 0 0.68 0 0 Z " fill="#5C5A5A" transform="translate(1213,1205)"/>
<path d="M0 0 C-5.625 3 -5.625 3 -9 3 C-9 2.34 -9 1.68 -9 1 C-5.57367167 -0.61798838 -3.61944899 -1.34053666 0 0 Z " fill="#7F7D7D" transform="translate(1525,1201)"/>
<path d="M0 0 C3.465 1.485 3.465 1.485 7 3 C7 3.99 7 4.98 7 6 C6.34 6 5.68 6 5 6 C5 5.34 5 4.68 5 4 C3.35 3.67 1.7 3.34 0 3 C0 2.01 0 1.02 0 0 Z " fill="#7D7B7B" transform="translate(1172,1187)"/>
<path d="M0 0 C1.65 0 3.3 0 5 0 C5 0.99 5 1.98 5 3 C2.69 3 0.38 3 -2 3 C-1.34 2.67 -0.68 2.34 0 2 C0 1.34 0 0.68 0 0 Z " fill="#838282" transform="translate(1392,1049)"/>
<path d="M0 0 C1.65 0 3.3 0 5 0 C5 0.66 5 1.32 5 2 C5.66 2.33 6.32 2.66 7 3 C4.69 3 2.38 3 0 3 C0 2.01 0 1.02 0 0 Z " fill="#8C8A8B" transform="translate(1353,1049)"/>
<path d="" fill="#BCBABB" transform="translate(0,0)"/>
</svg>
